<svg xmlns="http://www.w3.org/2000/svg" xmlns:xlink="http://www.w3.org/1999/xlink" viewBox="0 0 148.62 81.44"><defs><style>.cls-1{fill:#231f20;}.cls-2{fill:#f9ec31;}.cls-3,.cls-4,.cls-5,.cls-6,.cls-7,.cls-8{opacity:0.75;}.cls-3{fill:url(#linear-gradient);}.cls-4{fill:url(#linear-gradient-2);}.cls-5{fill:url(#linear-gradient-3);}.cls-6{fill:url(#linear-gradient-4);}.cls-7{fill:url(#linear-gradient-5);}.cls-8{fill:url(#linear-gradient-6);}.cls-10,.cls-11,.cls-12,.cls-14,.cls-15,.cls-16,.cls-17,.cls-18,.cls-19,.cls-21,.cls-9{opacity:0.5;}.cls-9{fill:url(#linear-gradient-7);}.cls-10{fill:url(#linear-gradient-8);}.cls-11{fill:url(#linear-gradient-9);}.cls-12{fill:url(#linear-gradient-10);}.cls-13{fill:#58595b;opacity:0.55;}.cls-14{fill:url(#linear-gradient-11);}.cls-15{fill:url(#linear-gradient-12);}.cls-16{fill:url(#linear-gradient-13);}.cls-17{fill:url(#linear-gradient-14);}.cls-18{fill:url(#linear-gradient-15);}.cls-19{fill:url(#linear-gradient-16);}.cls-20{opacity:0.71;fill:url(#linear-gradient-17);}.cls-21{fill:url(#linear-gradient-18);}</style><linearGradient id="linear-gradient" x1="-25.26" y1="192.66" x2="51.87" y2="107.56" gradientTransform="matrix(1, 0.07, -0.07, 0.96, 1.16, -134.99)" gradientUnits="userSpaceOnUse"><stop offset="0" stop-color="#2483c5"/><stop offset="0.08" stop-color="#2483c5" stop-opacity="0.87"/><stop offset="0.25" stop-color="#2483c5" stop-opacity="0.61"/><stop offset="0.42" stop-color="#2483c5" stop-opacity="0.39"/><stop offset="0.58" stop-color="#2483c5" stop-opacity="0.22"/><stop offset="0.74" stop-color="#2483c5" stop-opacity="0.1"/><stop offset="0.88" stop-color="#2483c5" stop-opacity="0.03"/><stop offset="1" stop-color="#2483c5" stop-opacity="0"/></linearGradient><linearGradient id="linear-gradient-2" x1="-25.5" y1="192.44" x2="51.63" y2="107.34" xlink:href="#linear-gradient"/><linearGradient id="linear-gradient-3" x1="38.96" y1="250.86" x2="116.09" y2="165.75" xlink:href="#linear-gradient"/><linearGradient id="linear-gradient-4" x1="-23.87" y1="193.92" x2="53.26" y2="108.81" xlink:href="#linear-gradient"/><linearGradient id="linear-gradient-5" x1="-24.82" y1="193.06" x2="52.31" y2="107.96" xlink:href="#linear-gradient"/><linearGradient id="linear-gradient-6" x1="-4.09" y1="211.85" x2="73.04" y2="126.74" xlink:href="#linear-gradient"/><linearGradient id="linear-gradient-7" x1="-34.81" y1="53.65" x2="42.32" y2="-31.46" gradientTransform="matrix(1, 0, 0, 1, 0, 0)" xlink:href="#linear-gradient"/><linearGradient id="linear-gradient-8" x1="-34.24" y1="54.17" x2="42.89" y2="-30.94" gradientTransform="matrix(1, 0, 0, 1, 0, 0)" xlink:href="#linear-gradient"/><linearGradient id="linear-gradient-9" x1="-33.86" y1="54.51" x2="43.27" y2="-30.6" gradientTransform="matrix(1, 0, 0, 1, 0, 0)" xlink:href="#linear-gradient"/><linearGradient id="linear-gradient-10" x1="-34.43" y1="54" x2="42.7" y2="-31.11" gradientTransform="matrix(1, 0, 0, 1, 0, 0)" xlink:href="#linear-gradient"/><linearGradient id="linear-gradient-11" x1="-9.63" y1="315.21" x2="67.5" y2="230.11" gradientTransform="matrix(0.99, 0.13, -0.12, 0.92, 9.49, -243.74)" xlink:href="#linear-gradient"/><linearGradient id="linear-gradient-12" x1="-9.65" y1="315.19" x2="67.48" y2="230.08" gradientTransform="matrix(0.99, 0.13, -0.12, 0.92, 9.49, -243.74)" xlink:href="#linear-gradient"/><linearGradient id="linear-gradient-13" x1="11.34" y1="334.21" x2="88.47" y2="249.11" gradientTransform="matrix(0.99, 0.13, -0.12, 0.92, 9.49, -243.74)" xlink:href="#linear-gradient"/><linearGradient id="linear-gradient-14" x1="-34.92" y1="54.8" x2="45.24" y2="-33.65" gradientTransform="matrix(1, 0, 0, 1, 0, 0)" xlink:href="#linear-gradient"/><linearGradient id="linear-gradient-15" x1="-35.31" y1="54.44" x2="44.84" y2="-34" gradientTransform="matrix(1, 0, 0, 1, 0, 0)" xlink:href="#linear-gradient"/><linearGradient id="linear-gradient-16" x1="-5.75" y1="86.62" x2="82.25" y2="-10.49" gradientTransform="matrix(1, 0, 0, 1, 0, 0)" xlink:href="#linear-gradient"/><linearGradient id="linear-gradient-17" x1="16.58" y1="74.2" x2="55.57" y2="7.54" gradientTransform="matrix(1, 0, 0, 1, 0, 0)" xlink:href="#linear-gradient"/><linearGradient id="linear-gradient-18" x1="22.93" y1="66.47" x2="36.72" y2="42.59" gradientUnits="userSpaceOnUse"><stop offset="0.47" stop-color="#0b4c76"/><stop offset="0.58" stop-color="#0e537f"/><stop offset="0.76" stop-color="#166499"/><stop offset="0.98" stop-color="#2381c2"/><stop offset="1" stop-color="#2483c5"/></linearGradient></defs><g id="Layer_2" data-name="Layer 2"><g id="Layer_1-2" data-name="Layer 1"><path class="cls-1" d="M89.8,30.36H86.51L81.69,19.67V30.36H78.4V14.06h3.29l4.83,10.7V14.06H89.8Z"/><path class="cls-1" d="M91.92,23.91a8.4,8.4,0,0,1,.34-2.52,5.2,5.2,0,0,1,1-1.85,4,4,0,0,1,1.54-1.13,5,5,0,0,1,2-.39,5.15,5.15,0,0,1,2,.39,4,4,0,0,1,1.54,1.13,5.34,5.34,0,0,1,1,1.85,8.08,8.08,0,0,1,.35,2.52v.79a8.42,8.42,0,0,1-.34,2.53,5.14,5.14,0,0,1-1,1.84,4,4,0,0,1-1.54,1.13,5.64,5.64,0,0,1-4.07,0,4,4,0,0,1-1.54-1.13,5.15,5.15,0,0,1-1-1.84,8.42,8.42,0,0,1-.34-2.53Zm3.18.79a5.14,5.14,0,0,0,.45,2.47,1.46,1.46,0,0,0,2.58,0,5.3,5.3,0,0,0,.43-2.47v-.79a5.17,5.17,0,0,0-.45-2.46,1.44,1.44,0,0,0-1.3-.8,1.4,1.4,0,0,0-1.26.8,5.17,5.17,0,0,0-.45,2.46Z"/><path class="cls-1" d="M107.38,15.27v3H109v2.39h-1.62v6a2.87,2.87,0,0,0,.05.63.79.79,0,0,0,.17.38.48.48,0,0,0,.29.19,1.44,1.44,0,0,0,.44.05,2.89,2.89,0,0,0,.43,0,2,2,0,0,0,.32-.05l0,2.46a5.51,5.51,0,0,1-.78.22,5.42,5.42,0,0,1-1,.08,3.7,3.7,0,0,1-1.28-.2,2.52,2.52,0,0,1-1-.62,2.82,2.82,0,0,1-.62-1.12,5.25,5.25,0,0,1-.22-1.64V20.63h-1.4V18.24h1.4v-3Z"/><path class="cls-1" d="M115.63,30.58a6.06,6.06,0,0,1-2.21-.38,4.28,4.28,0,0,1-1.62-1.1,4.56,4.56,0,0,1-1-1.75,7.42,7.42,0,0,1-.35-2.36V24a8.74,8.74,0,0,1,.34-2.59,5.07,5.07,0,0,1,.95-1.87,3.8,3.8,0,0,1,1.52-1.14,5.26,5.26,0,0,1,2-.38,4.11,4.11,0,0,1,3.46,1.49,7.1,7.1,0,0,1,1.16,4.41v1.44h-6.31a4.36,4.36,0,0,0,.2,1.22,2.11,2.11,0,0,0,.44.8,1.64,1.64,0,0,0,.68.44,3,3,0,0,0,.9.13,3.67,3.67,0,0,0,1.49-.29,3.45,3.45,0,0,0,1.16-.8l1.25,1.92a4.1,4.1,0,0,1-.62.64,4.65,4.65,0,0,1-.9.58,5.84,5.84,0,0,1-1.16.42A5.77,5.77,0,0,1,115.63,30.58Zm-.35-9.93a1.32,1.32,0,0,0-1.2.59,4.16,4.16,0,0,0-.45,1.91h3.17v-.29a3.26,3.26,0,0,0-.36-1.65A1.24,1.24,0,0,0,115.28,20.65Z"/><path class="cls-1" d="M88.79,45.91a6,6,0,0,1-1.48,4,5.44,5.44,0,0,1-5.71.83A4.55,4.55,0,0,1,80,49.44a6.42,6.42,0,0,1-1-2.1,10.45,10.45,0,0,1-.36-2.8V41A10.07,10.07,0,0,1,79,38.29a6.09,6.09,0,0,1,1-2.07,4.6,4.6,0,0,1,1.64-1.3,5.09,5.09,0,0,1,2.18-.45,5.9,5.9,0,0,1,2,.31,4.1,4.1,0,0,1,1.52,1,4.63,4.63,0,0,1,1,1.66,8.46,8.46,0,0,1,.46,2.4h-1.3a8.52,8.52,0,0,0-.34-1.91,3.47,3.47,0,0,0-.72-1.27,2.64,2.64,0,0,0-1.1-.72,4.58,4.58,0,0,0-1.51-.22,3.77,3.77,0,0,0-1.68.36,3.31,3.31,0,0,0-1.22,1.05,4.48,4.48,0,0,0-.75,1.68A9,9,0,0,0,79.91,41v3.52a9.31,9.31,0,0,0,.25,2.26,5.32,5.32,0,0,0,.71,1.73,3.32,3.32,0,0,0,1.19,1.11,3.39,3.39,0,0,0,1.66.39,5.28,5.28,0,0,0,1.57-.21,2.62,2.62,0,0,0,1.13-.69,3.44,3.44,0,0,0,.72-1.27,7.94,7.94,0,0,0,.35-2Z"/><path class="cls-1" d="M96.46,40l-.37,0a2.68,2.68,0,0,0-.41,0,2.4,2.4,0,0,0-1,.19,2.26,2.26,0,0,0-.78.55,3.21,3.21,0,0,0-.58.84A5.08,5.08,0,0,0,93,42.63V51H91.72V38.88h1.21l0,1.81a3.78,3.78,0,0,1,1.09-1.49,2.64,2.64,0,0,1,1.68-.54,2.15,2.15,0,0,1,.43,0,1,1,0,0,1,.32.1Z"/><path class="cls-1" d="M102.43,51.22a5,5,0,0,1-1.85-.33,3.84,3.84,0,0,1-1.45-1,4.7,4.7,0,0,1-.95-1.71,8,8,0,0,1-.33-2.44V44.35a8.28,8.28,0,0,1,.36-2.6,5.14,5.14,0,0,1,1-1.77,3.65,3.65,0,0,1,1.38-1,4.46,4.46,0,0,1,1.67-.31,3.6,3.6,0,0,1,3,1.31,6.46,6.46,0,0,1,1,4v1.06h-7.2v.68a6.55,6.55,0,0,0,.25,1.93A3.74,3.74,0,0,0,100,49a2.73,2.73,0,0,0,1.08.8,3.43,3.43,0,0,0,1.38.26,3.78,3.78,0,0,0,1.64-.32,3.63,3.63,0,0,0,1.26-1l.65.83a3.49,3.49,0,0,1-1.35,1.14,4.52,4.52,0,0,1-1,.36A5.93,5.93,0,0,1,102.43,51.22Zm-.21-11.4A3.19,3.19,0,0,0,101,40a2.46,2.46,0,0,0-1,.71A3.94,3.94,0,0,0,99.38,42a7.42,7.42,0,0,0-.29,1.87h6v-.32a7.28,7.28,0,0,0-.21-1.58,3.44,3.44,0,0,0-.52-1.18,2.17,2.17,0,0,0-.86-.73A2.79,2.79,0,0,0,102.22,39.82Z"/><path class="cls-1" d="M115.32,51a5.07,5.07,0,0,1-.14-.75c0-.31-.07-.61-.08-.93a4.3,4.3,0,0,1-.56.73,4.41,4.41,0,0,1-.74.6,4,4,0,0,1-.94.42,3.92,3.92,0,0,1-1.11.16,4.17,4.17,0,0,1-1.36-.22,2.82,2.82,0,0,1-1-.63,2.93,2.93,0,0,1-.68-1.07,4.44,4.44,0,0,1-.23-1.49,4.15,4.15,0,0,1,.29-1.55A3.19,3.19,0,0,1,109.6,45a3.87,3.87,0,0,1,1.44-.81,6.34,6.34,0,0,1,2-.29h2V42.25a2.41,2.41,0,0,0-.64-1.87,2.82,2.82,0,0,0-1.89-.56,3,3,0,0,0-1.07.18,2.39,2.39,0,0,0-.83.5,2.07,2.07,0,0,0-.54.76,2.37,2.37,0,0,0-.19,1h-1.24a3.23,3.23,0,0,1,.28-1.35,3.44,3.44,0,0,1,.79-1.14A3.74,3.74,0,0,1,111,39a4.25,4.25,0,0,1,1.62-.29,5.38,5.38,0,0,1,1.49.19,3,3,0,0,1,1.17.63,2.87,2.87,0,0,1,.77,1.12,4.57,4.57,0,0,1,.27,1.67v6.18c0,.21,0,.43,0,.65s0,.44.07.65a5.18,5.18,0,0,0,.1.61,2.74,2.74,0,0,0,.14.5V51Zm-3.41-1a3.83,3.83,0,0,0,1.09-.16,3.36,3.36,0,0,0,.91-.45,3,3,0,0,0,.7-.67,3.21,3.21,0,0,0,.48-.82V45h-1.87a4.05,4.05,0,0,0-2.64.74,2.46,2.46,0,0,0-.89,2A2,2,0,0,0,111.91,50Z"/><path class="cls-1" d="M121.58,35.79v3.09h2.07V40h-2.07v8a3.93,3.93,0,0,0,.11,1,1.53,1.53,0,0,0,.29.6.78.78,0,0,0,.4.28,1.62,1.62,0,0,0,.49.08,2.52,2.52,0,0,0,.48,0l.42-.07,0,1.12a2.35,2.35,0,0,1-.53.14,5.09,5.09,0,0,1-.69,0,2.56,2.56,0,0,1-.89-.16,1.73,1.73,0,0,1-.71-.53,2.56,2.56,0,0,1-.47-1,5.82,5.82,0,0,1-.17-1.51V40h-1.87V38.88h1.87V35.79Z"/><path class="cls-1" d="M126.32,35.39a1,1,0,0,1,.21-.65.73.73,0,0,1,.61-.27.75.75,0,0,1,.61.27,1.1,1.1,0,0,1,0,1.29.77.77,0,0,1-.61.26.76.76,0,0,1-.61-.26A1,1,0,0,1,126.32,35.39ZM127.75,51H126.5V38.88h1.25Z"/><path class="cls-1" d="M134.4,49l3-10.16h1.28L134.88,51h-1l-3.8-12.11h1.28Z"/><path class="cls-1" d="M144.77,51.22a5,5,0,0,1-1.85-.33,3.84,3.84,0,0,1-1.45-1,4.7,4.7,0,0,1-.95-1.71,8,8,0,0,1-.33-2.44V44.35a8.28,8.28,0,0,1,.36-2.6,5.14,5.14,0,0,1,1-1.77,3.65,3.65,0,0,1,1.38-1,4.46,4.46,0,0,1,1.67-.31,3.6,3.6,0,0,1,3,1.31,6.46,6.46,0,0,1,1,4v1.06h-7.2v.68a6.55,6.55,0,0,0,.25,1.93,3.74,3.74,0,0,0,.69,1.35,2.73,2.73,0,0,0,1.08.8,3.43,3.43,0,0,0,1.38.26,3.78,3.78,0,0,0,1.64-.32,3.63,3.63,0,0,0,1.26-1l.65.83A3.49,3.49,0,0,1,147,50.73a4.34,4.34,0,0,1-1,.36A5.93,5.93,0,0,1,144.77,51.22Zm-.21-11.4a3.19,3.19,0,0,0-1.22.22,2.46,2.46,0,0,0-1,.71,3.94,3.94,0,0,0-.66,1.26,7.42,7.42,0,0,0-.29,1.87h5.95v-.32a8,8,0,0,0-.2-1.58,3.65,3.65,0,0,0-.53-1.18,2.17,2.17,0,0,0-.86-.73A2.79,2.79,0,0,0,144.56,39.82Z"/><path class="cls-1" d="M86.68,67.62a3.59,3.59,0,0,0-.18-1.19,2.33,2.33,0,0,0-.59-1,4.46,4.46,0,0,0-1.13-.78A13.56,13.56,0,0,0,83,64a13.56,13.56,0,0,1-1.86-.76,5.55,5.55,0,0,1-1.4-.95,3.74,3.74,0,0,1-.9-1.26,4.61,4.61,0,0,1,0-3.4,4,4,0,0,1,.95-1.34,4.41,4.41,0,0,1,1.46-.86,5.5,5.5,0,0,1,1.86-.31,4.94,4.94,0,0,1,2,.38,4.69,4.69,0,0,1,1.49,1,4.49,4.49,0,0,1,.94,1.56A5.42,5.42,0,0,1,87.9,60H86.61a4.56,4.56,0,0,0-.23-1.46,3.38,3.38,0,0,0-.67-1.17,3.07,3.07,0,0,0-1.07-.76,3.6,3.6,0,0,0-1.47-.28,4,4,0,0,0-1.45.24,2.82,2.82,0,0,0-1,.64,2.63,2.63,0,0,0-.63,1,3.19,3.19,0,0,0-.21,1.16A3,3,0,0,0,80,60.37a2.52,2.52,0,0,0,.61.9,4.78,4.78,0,0,0,1.12.78,11.59,11.59,0,0,0,1.68.69,13.23,13.23,0,0,1,1.94.79,5.29,5.29,0,0,1,1.42,1,3.73,3.73,0,0,1,.88,1.33A4.67,4.67,0,0,1,88,67.6a4.22,4.22,0,0,1-.35,1.78,3.67,3.67,0,0,1-1,1.34,4.19,4.19,0,0,1-1.49.84,6,6,0,0,1-1.89.29,6.12,6.12,0,0,1-1.83-.28,4.67,4.67,0,0,1-1.65-.87,4.51,4.51,0,0,1-1.19-1.51A5,5,0,0,1,78.13,67h1.28a4,4,0,0,0,.34,1.74,3.31,3.31,0,0,0,.89,1.14,3.37,3.37,0,0,0,1.24.62,5,5,0,0,0,1.38.19,4.51,4.51,0,0,0,1.42-.21,3,3,0,0,0,1.07-.62,2.55,2.55,0,0,0,.68-1A3,3,0,0,0,86.68,67.62Z"/><path class="cls-1" d="M92.47,56.42v3.09h2.08v1.12H92.47v8.05a4,4,0,0,0,.11,1,1.55,1.55,0,0,0,.29.59.82.82,0,0,0,.41.29,1.51,1.51,0,0,0,.48.07,2.45,2.45,0,0,0,.48,0l.42-.07,0,1.12a1.91,1.91,0,0,1-.53.14,5.09,5.09,0,0,1-.69,0,2.56,2.56,0,0,1-.89-.15,1.82,1.82,0,0,1-.71-.53,2.63,2.63,0,0,1-.47-1,5.9,5.9,0,0,1-.17-1.52v-8H89.36V59.51h1.87V56.42Z"/><path class="cls-1" d="M103.75,70.18a3.45,3.45,0,0,1-1.26,1.23,3.91,3.91,0,0,1-1.93.44,3.56,3.56,0,0,1-1.37-.25,2.64,2.64,0,0,1-1-.8,4,4,0,0,1-.68-1.42,8,8,0,0,1-.24-2.11V59.51h1.23v7.78a6.06,6.06,0,0,0,.18,1.61,3.05,3.05,0,0,0,.49,1,1.77,1.77,0,0,0,.73.56,2.28,2.28,0,0,0,.87.16,3.61,3.61,0,0,0,1.14-.16,2.8,2.8,0,0,0,.87-.47,2.66,2.66,0,0,0,.6-.73,3.82,3.82,0,0,0,.4-.92V59.51H105V71.63h-1.21Z"/><path class="cls-1" d="M107.85,65a10.87,10.87,0,0,1,.27-2.6,5.13,5.13,0,0,1,.79-1.78,3,3,0,0,1,1.25-1,3.94,3.94,0,0,1,1.64-.33,3.28,3.28,0,0,1,1.84.49,3.72,3.72,0,0,1,1.24,1.36V54.43h1.24v17.2H115l0-1.56a3.58,3.58,0,0,1-1.25,1.31,3.43,3.43,0,0,1-1.86.47,3.79,3.79,0,0,1-1.64-.34,3.24,3.24,0,0,1-1.23-1.05,5.13,5.13,0,0,1-.79-1.78,10,10,0,0,1-.28-2.54Zm1.26,1.13a6.61,6.61,0,0,0,.7,3.43A2.45,2.45,0,0,0,112,70.66a3,3,0,0,0,1-.14,2.71,2.71,0,0,0,.8-.39,2.85,2.85,0,0,0,.61-.59,4.66,4.66,0,0,0,.45-.75V62.51a5.28,5.28,0,0,0-.42-.77,2.69,2.69,0,0,0-1.38-1.08,2.78,2.78,0,0,0-1-.17,2.46,2.46,0,0,0-2.24,1.1,6.62,6.62,0,0,0-.7,3.42Z"/><path class="cls-1" d="M119.43,56a1,1,0,0,1,.22-.65.72.72,0,0,1,.6-.27.73.73,0,0,1,.61.27,1,1,0,0,1,.22.65.92.92,0,0,1-.22.64.73.73,0,0,1-.61.27.72.72,0,0,1-.6-.27A.92.92,0,0,1,119.43,56Zm1.44,15.61h-1.26V59.51h1.26Z"/><path class="cls-1" d="M123.83,65a8.09,8.09,0,0,1,.33-2.42,5.23,5.23,0,0,1,.9-1.78,3.89,3.89,0,0,1,1.4-1.09,4.23,4.23,0,0,1,1.8-.37,4.31,4.31,0,0,1,1.81.37,3.89,3.89,0,0,1,1.4,1.09,5.05,5.05,0,0,1,.9,1.78,8.45,8.45,0,0,1,.32,2.42v1.26a8.47,8.47,0,0,1-.32,2.43,5,5,0,0,1-.9,1.76,3.68,3.68,0,0,1-1.4,1.08,4.22,4.22,0,0,1-1.79.37,4.32,4.32,0,0,1-1.82-.37,3.75,3.75,0,0,1-1.4-1.08,5.12,5.12,0,0,1-.9-1.76,8.12,8.12,0,0,1-.33-2.43Zm1.26,1.26a7.64,7.64,0,0,0,.21,1.87,4.34,4.34,0,0,0,.62,1.41,2.86,2.86,0,0,0,1,.9,3,3,0,0,0,1.36.31,3.07,3.07,0,0,0,1.4-.31,2.72,2.72,0,0,0,1-.9,4.31,4.31,0,0,0,.59-1.41,8.19,8.19,0,0,0,.2-1.87V65a7.17,7.17,0,0,0-.22-1.85,4.39,4.39,0,0,0-.62-1.42,3,3,0,0,0-1-.91,2.86,2.86,0,0,0-1.35-.32,2.77,2.77,0,0,0-1.34.32,2.9,2.9,0,0,0-1,.91,4.39,4.39,0,0,0-.62,1.42,7.64,7.64,0,0,0-.21,1.85Z"/><path class="cls-2" d="M60.92,77.2,14.84,81.3a5.31,5.31,0,0,1-6.51-5.17V7.49a5.31,5.31,0,0,1,6.51-5.17L60.92,13A5.31,5.31,0,0,1,65,18.15V72A5.31,5.31,0,0,1,60.92,77.2Z"/><path class="cls-3" d="M11.7,2.58,12,2.49Z"/><path class="cls-4" d="M10.74,3.08l.1-.06Z"/><path class="cls-5" d="M55.93,77.68l.23-.05-.67.06Z"/><path class="cls-6" d="M15.73,2.53l-.38-.12a5.52,5.52,0,0,0-1.59-.21,5.67,5.67,0,0,1,1.08.12Z"/><path class="cls-7" d="M12.72,2.29a3.81,3.81,0,0,1,.59-.07A3.81,3.81,0,0,0,12.72,2.29Z"/><path class="cls-8" d="M8.33,8.91,3.56,72.73a5.22,5.22,0,0,0,5.22,5.48,5.31,5.31,0,0,1-.45-2.08Z"/><path class="cls-9" d="M10.84,3a5.36,5.36,0,0,1,.86-.44A5.81,5.81,0,0,0,10.84,3Z"/><path class="cls-10" d="M10.74,3.08A5.28,5.28,0,0,0,8.33,7.49V8.91l.16-2A5,5,0,0,1,10.74,3.08Z"/><path class="cls-11" d="M13.31,2.22a3.39,3.39,0,0,1,.45,0Z"/><path class="cls-12" d="M12,2.49a4.59,4.59,0,0,1,.75-.2A3.77,3.77,0,0,0,12,2.49Z"/><polygon class="cls-13" points="46.73 17.2 35.26 16.05 35.26 0 46.73 4.91 46.73 17.2"/><path class="cls-14" d="M10.74,3.08l.1-.06a5.36,5.36,0,0,1,.86-.44L12,2.49a4.59,4.59,0,0,1,.75-.2,3.81,3.81,0,0,1,.59-.07,3.39,3.39,0,0,1,.45,0,5.67,5.67,0,0,1,1.08.12l.89.21h.06l-.12,0A5.28,5.28,0,0,0,8.79,5.57,5.07,5.07,0,0,1,10.74,3.08Z"/><path class="cls-15" d="M8.58,6.36l0,.2c0-.13,0-.26.07-.38C8.61,6.24,8.59,6.29,8.58,6.36Z"/><path class="cls-16" d="M8.46,7.21,0,69.19c-.42,3.13,2.41,5.87,5.81,5.61l2.48.14v-66Z"/><path class="cls-17" d="M8.49,6.89l0,.32.09-.65A1.75,1.75,0,0,0,8.49,6.89Z"/><path class="cls-18" d="M8.62,6.18a3.62,3.62,0,0,1,.17-.61A5.43,5.43,0,0,0,8.62,6.18Z"/><path class="cls-19" d="M60.92,13,15.79,2.54h-.06l-.89-.21a5.67,5.67,0,0,0-1.08-.12,3.39,3.39,0,0,0-.45,0,3.81,3.81,0,0,0-.59.07,4.59,4.59,0,0,0-.75.2l-.27.09a5.36,5.36,0,0,0-.86.44l-.1.06a5.07,5.07,0,0,0-2,2.49,3.62,3.62,0,0,0-.17.61c0,.12,0,.25-.07.38l-.09.65-.13,1.7V76.13a5.37,5.37,0,0,0,6.51,5.17l40.65-3.61.67-.06,4.76-.43A5.31,5.31,0,0,0,65,72V18.15A5.31,5.31,0,0,0,60.92,13Z"/><path class="cls-20" d="M60.92,13,15.79,2.54h-.06l-.89-.21a5.67,5.67,0,0,0-1.08-.12,3.39,3.39,0,0,0-.45,0,3.81,3.81,0,0,0-.59.07,4.59,4.59,0,0,0-.75.2l-.27.09a5.36,5.36,0,0,0-.86.44l-.1.06a5.07,5.07,0,0,0-2,2.49,3.62,3.62,0,0,0-.17.61c0,.12,0,.25-.07.38l-.09.65-.13,1.7V76.13a5.37,5.37,0,0,0,6.51,5.17l40.65-3.61.67-.06,4.76-.43A5.31,5.31,0,0,0,65,72V18.15A5.31,5.31,0,0,0,60.92,13Z"/><path class="cls-21" d="M38.84,44.63,8.37,42.76a0,0,0,0,0,0,.05L44.11,78.69a0,0,0,0,0,0,0V50A5.31,5.31,0,0,0,38.84,44.63Z"/></g></g></svg>