<svg version="1.2" xmlns="http://www.w3.org/2000/svg" viewBox="0 0 78 82" width="78" height="82">
	<title>Asset 1-svg</title>
	<defs>
		<linearGradient id="g1" x1="-27.8" y1="47.7" x2="54.6" y2="-27.9" gradientUnits="userSpaceOnUse">
			<stop offset="0" stop-color="#2483c5"/>
			<stop offset=".1" stop-color="#2483c5" stop-opacity=".9"/>
			<stop offset=".3" stop-color="#2483c5" stop-opacity=".6"/>
			<stop offset=".4" stop-color="#2483c5" stop-opacity=".4"/>
			<stop offset=".6" stop-color="#2483c5" stop-opacity=".2"/>
			<stop offset=".7" stop-color="#2483c5" stop-opacity=".1"/>
			<stop offset=".9" stop-color="#2483c5" stop-opacity="0"/>
			<stop offset="1" stop-color="#2483c5" stop-opacity="0"/>
		</linearGradient>
		<linearGradient id="g2" x1="-15.9" y1="191.5" x2="60.8" y2="106.8" gradientUnits="userSpaceOnUse">
			<stop offset="0" stop-color="#2483c5"/>
			<stop offset=".1" stop-color="#2483c5" stop-opacity=".9"/>
			<stop offset=".3" stop-color="#2483c5" stop-opacity=".6"/>
			<stop offset=".4" stop-color="#2483c5" stop-opacity=".4"/>
			<stop offset=".6" stop-color="#2483c5" stop-opacity=".2"/>
			<stop offset=".7" stop-color="#2483c5" stop-opacity=".1"/>
			<stop offset=".9" stop-color="#2483c5" stop-opacity="0"/>
			<stop offset="1" stop-color="#2483c5" stop-opacity="0"/>
		</linearGradient>
		<linearGradient id="g3" x1="49" y1="245.7" x2="123.8" y2="163.1" gradientUnits="userSpaceOnUse">
			<stop offset="0" stop-color="#2483c5"/>
			<stop offset=".1" stop-color="#2483c5" stop-opacity=".9"/>
			<stop offset=".3" stop-color="#2483c5" stop-opacity=".6"/>
			<stop offset=".4" stop-color="#2483c5" stop-opacity=".4"/>
			<stop offset=".6" stop-color="#2483c5" stop-opacity=".2"/>
			<stop offset=".7" stop-color="#2483c5" stop-opacity=".1"/>
			<stop offset=".9" stop-color="#2483c5" stop-opacity="0"/>
			<stop offset="1" stop-color="#2483c5" stop-opacity="0"/>
		</linearGradient>
		<linearGradient id="g4" x1="-15.1" y1="196.8" x2="63.2" y2="110.4" gradientUnits="userSpaceOnUse">
			<stop offset="0" stop-color="#2483c5"/>
			<stop offset=".1" stop-color="#2483c5" stop-opacity=".9"/>
			<stop offset=".3" stop-color="#2483c5" stop-opacity=".6"/>
			<stop offset=".4" stop-color="#2483c5" stop-opacity=".4"/>
			<stop offset=".6" stop-color="#2483c5" stop-opacity=".2"/>
			<stop offset=".7" stop-color="#2483c5" stop-opacity=".1"/>
			<stop offset=".9" stop-color="#2483c5" stop-opacity="0"/>
			<stop offset="1" stop-color="#2483c5" stop-opacity="0"/>
		</linearGradient>
		<linearGradient id="g5" x1="-14.6" y1="188.6" x2="60.8" y2="105.5" gradientUnits="userSpaceOnUse">
			<stop offset="0" stop-color="#2483c5"/>
			<stop offset=".1" stop-color="#2483c5" stop-opacity=".9"/>
			<stop offset=".3" stop-color="#2483c5" stop-opacity=".6"/>
			<stop offset=".4" stop-color="#2483c5" stop-opacity=".4"/>
			<stop offset=".6" stop-color="#2483c5" stop-opacity=".2"/>
			<stop offset=".7" stop-color="#2483c5" stop-opacity=".1"/>
			<stop offset=".9" stop-color="#2483c5" stop-opacity="0"/>
			<stop offset="1" stop-color="#2483c5" stop-opacity="0"/>
		</linearGradient>
		<linearGradient id="g6" x1="5.2" y1="211.4" x2="81.7" y2="127" gradientUnits="userSpaceOnUse">
			<stop offset="0" stop-color="#2483c5"/>
			<stop offset=".1" stop-color="#2483c5" stop-opacity=".9"/>
			<stop offset=".3" stop-color="#2483c5" stop-opacity=".6"/>
			<stop offset=".4" stop-color="#2483c5" stop-opacity=".4"/>
			<stop offset=".6" stop-color="#2483c5" stop-opacity=".2"/>
			<stop offset=".7" stop-color="#2483c5" stop-opacity=".1"/>
			<stop offset=".9" stop-color="#2483c5" stop-opacity="0"/>
			<stop offset="1" stop-color="#2483c5" stop-opacity="0"/>
		</linearGradient>
		<linearGradient id="g7" x1="-25.2" y1="53.3" x2="51.5" y2="-31.3" gradientUnits="userSpaceOnUse">
			<stop offset="0" stop-color="#2483c5"/>
			<stop offset=".1" stop-color="#2483c5" stop-opacity=".9"/>
			<stop offset=".3" stop-color="#2483c5" stop-opacity=".6"/>
			<stop offset=".4" stop-color="#2483c5" stop-opacity=".4"/>
			<stop offset=".6" stop-color="#2483c5" stop-opacity=".2"/>
			<stop offset=".7" stop-color="#2483c5" stop-opacity=".1"/>
			<stop offset=".9" stop-color="#2483c5" stop-opacity="0"/>
			<stop offset="1" stop-color="#2483c5" stop-opacity="0"/>
		</linearGradient>
		<linearGradient id="g8" x1="-24.9" y1="54.2" x2="52.3" y2="-31.1" gradientUnits="userSpaceOnUse">
			<stop offset="0" stop-color="#2483c5"/>
			<stop offset=".1" stop-color="#2483c5" stop-opacity=".9"/>
			<stop offset=".3" stop-color="#2483c5" stop-opacity=".6"/>
			<stop offset=".4" stop-color="#2483c5" stop-opacity=".4"/>
			<stop offset=".6" stop-color="#2483c5" stop-opacity=".2"/>
			<stop offset=".7" stop-color="#2483c5" stop-opacity=".1"/>
			<stop offset=".9" stop-color="#2483c5" stop-opacity="0"/>
			<stop offset="1" stop-color="#2483c5" stop-opacity="0"/>
		</linearGradient>
		<linearGradient id="g9" x1="-27.6" y1="58.8" x2="55.9" y2="-33.4" gradientUnits="userSpaceOnUse">
			<stop offset="0" stop-color="#2483c5"/>
			<stop offset=".1" stop-color="#2483c5" stop-opacity=".9"/>
			<stop offset=".3" stop-color="#2483c5" stop-opacity=".6"/>
			<stop offset=".4" stop-color="#2483c5" stop-opacity=".4"/>
			<stop offset=".6" stop-color="#2483c5" stop-opacity=".2"/>
			<stop offset=".7" stop-color="#2483c5" stop-opacity=".1"/>
			<stop offset=".9" stop-color="#2483c5" stop-opacity="0"/>
			<stop offset="1" stop-color="#2483c5" stop-opacity="0"/>
		</linearGradient>
		<linearGradient id="g10" x1="-24.6" y1="53.4" x2="51.7" y2="-30.8" gradientUnits="userSpaceOnUse">
			<stop offset="0" stop-color="#2483c5"/>
			<stop offset=".1" stop-color="#2483c5" stop-opacity=".9"/>
			<stop offset=".3" stop-color="#2483c5" stop-opacity=".6"/>
			<stop offset=".4" stop-color="#2483c5" stop-opacity=".4"/>
			<stop offset=".6" stop-color="#2483c5" stop-opacity=".2"/>
			<stop offset=".7" stop-color="#2483c5" stop-opacity=".1"/>
			<stop offset=".9" stop-color="#2483c5" stop-opacity="0"/>
			<stop offset="1" stop-color="#2483c5" stop-opacity="0"/>
		</linearGradient>
		<linearGradient id="g11" x1="-28.3" y1="44.8" x2="57.9" y2="-23.2" gradientUnits="userSpaceOnUse">
			<stop offset="0" stop-color="#2483c5"/>
			<stop offset=".1" stop-color="#2483c5" stop-opacity=".9"/>
			<stop offset=".3" stop-color="#2483c5" stop-opacity=".6"/>
			<stop offset=".4" stop-color="#2483c5" stop-opacity=".4"/>
			<stop offset=".6" stop-color="#2483c5" stop-opacity=".2"/>
			<stop offset=".7" stop-color="#2483c5" stop-opacity=".1"/>
			<stop offset=".9" stop-color="#2483c5" stop-opacity="0"/>
			<stop offset="1" stop-color="#2483c5" stop-opacity="0"/>
		</linearGradient>
		<linearGradient id="g12" x1="-28.9" y1="45.2" x2="58.5" y2="-23.7" gradientUnits="userSpaceOnUse">
			<stop offset="0" stop-color="#2483c5"/>
			<stop offset=".1" stop-color="#2483c5" stop-opacity=".9"/>
			<stop offset=".3" stop-color="#2483c5" stop-opacity=".6"/>
			<stop offset=".4" stop-color="#2483c5" stop-opacity=".4"/>
			<stop offset=".6" stop-color="#2483c5" stop-opacity=".2"/>
			<stop offset=".7" stop-color="#2483c5" stop-opacity=".1"/>
			<stop offset=".9" stop-color="#2483c5" stop-opacity="0"/>
			<stop offset="1" stop-color="#2483c5" stop-opacity="0"/>
		</linearGradient>
		<linearGradient id="g13" x1="-10.4" y1="65.6" x2="77.5" y2="-3.6" gradientUnits="userSpaceOnUse">
			<stop offset="0" stop-color="#2483c5"/>
			<stop offset=".1" stop-color="#2483c5" stop-opacity=".9"/>
			<stop offset=".3" stop-color="#2483c5" stop-opacity=".6"/>
			<stop offset=".4" stop-color="#2483c5" stop-opacity=".4"/>
			<stop offset=".6" stop-color="#2483c5" stop-opacity=".2"/>
			<stop offset=".7" stop-color="#2483c5" stop-opacity=".1"/>
			<stop offset=".9" stop-color="#2483c5" stop-opacity="0"/>
			<stop offset="1" stop-color="#2483c5" stop-opacity="0"/>
		</linearGradient>
		<linearGradient id="g14" x1="-26.1" y1="55.4" x2="55.2" y2="-34.4" gradientUnits="userSpaceOnUse">
			<stop offset="0" stop-color="#2483c5"/>
			<stop offset=".1" stop-color="#2483c5" stop-opacity=".9"/>
			<stop offset=".3" stop-color="#2483c5" stop-opacity=".6"/>
			<stop offset=".4" stop-color="#2483c5" stop-opacity=".4"/>
			<stop offset=".6" stop-color="#2483c5" stop-opacity=".2"/>
			<stop offset=".7" stop-color="#2483c5" stop-opacity=".1"/>
			<stop offset=".9" stop-color="#2483c5" stop-opacity="0"/>
			<stop offset="1" stop-color="#2483c5" stop-opacity="0"/>
		</linearGradient>
		<linearGradient id="g15" x1="-26.1" y1="54.6" x2="54.4" y2="-34.3" gradientUnits="userSpaceOnUse">
			<stop offset="0" stop-color="#2483c5"/>
			<stop offset=".1" stop-color="#2483c5" stop-opacity=".9"/>
			<stop offset=".3" stop-color="#2483c5" stop-opacity=".6"/>
			<stop offset=".4" stop-color="#2483c5" stop-opacity=".4"/>
			<stop offset=".6" stop-color="#2483c5" stop-opacity=".2"/>
			<stop offset=".7" stop-color="#2483c5" stop-opacity=".1"/>
			<stop offset=".9" stop-color="#2483c5" stop-opacity="0"/>
			<stop offset="1" stop-color="#2483c5" stop-opacity="0"/>
		</linearGradient>
		<linearGradient id="g16" x1="3.5" y1="86.4" x2="91.3" y2="-10.4" gradientUnits="userSpaceOnUse">
			<stop offset="0" stop-color="#2483c5"/>
			<stop offset=".1" stop-color="#2483c5" stop-opacity=".9"/>
			<stop offset=".3" stop-color="#2483c5" stop-opacity=".6"/>
			<stop offset=".4" stop-color="#2483c5" stop-opacity=".4"/>
			<stop offset=".6" stop-color="#2483c5" stop-opacity=".2"/>
			<stop offset=".7" stop-color="#2483c5" stop-opacity=".1"/>
			<stop offset=".9" stop-color="#2483c5" stop-opacity="0"/>
			<stop offset="1" stop-color="#2483c5" stop-opacity="0"/>
		</linearGradient>
		<linearGradient id="g17" x1="25.7" y1="74.1" x2="64.7" y2="7.5" gradientUnits="userSpaceOnUse">
			<stop offset="0" stop-color="#2483c5"/>
			<stop offset=".1" stop-color="#2483c5" stop-opacity=".9"/>
			<stop offset=".3" stop-color="#2483c5" stop-opacity=".6"/>
			<stop offset=".4" stop-color="#2483c5" stop-opacity=".4"/>
			<stop offset=".6" stop-color="#2483c5" stop-opacity=".2"/>
			<stop offset=".7" stop-color="#2483c5" stop-opacity=".1"/>
			<stop offset=".9" stop-color="#2483c5" stop-opacity="0"/>
			<stop offset="1" stop-color="#2483c5" stop-opacity="0"/>
		</linearGradient>
		<linearGradient id="g18" x1="32.2" y1="66.4" x2="45.9" y2="42.7" gradientUnits="userSpaceOnUse">
			<stop offset=".5" stop-color="#0b4c76"/>
			<stop offset=".6" stop-color="#0e537f"/>
			<stop offset=".8" stop-color="#166499"/>
			<stop offset="1" stop-color="#2381c2"/>
			<stop offset="1" stop-color="#2483c5"/>
		</linearGradient>
	</defs>
	<style>
		.s0 { fill: #231f20 } 
		.s1 { fill: #f9ec31 } 
		.s2 { opacity: .7;fill: url(#g1) } 
		.s3 { opacity: .7;fill: url(#g2) } 
		.s4 { opacity: .7;fill: url(#g3) } 
		.s5 { opacity: .7;fill: url(#g4) } 
		.s6 { opacity: .7;fill: url(#g5) } 
		.s7 { opacity: .7;fill: url(#g6) } 
		.s8 { opacity: .5;fill: url(#g7) } 
		.s9 { opacity: .5;fill: url(#g8) } 
		.s10 { opacity: .5;fill: url(#g9) } 
		.s11 { opacity: .5;fill: url(#g10) } 
		.s12 { opacity: .5;fill: #58595b } 
		.s13 { opacity: .5;fill: url(#g11) } 
		.s14 { opacity: .5;fill: url(#g12) } 
		.s15 { opacity: .5;fill: url(#g13) } 
		.s16 { opacity: .5;fill: url(#g14) } 
		.s17 { opacity: .5;fill: url(#g15) } 
		.s18 { opacity: .5;fill: url(#g16) } 
		.s19 { opacity: .7;fill: url(#g17) } 
		.s20 { opacity: .5;fill: url(#g18) } 
	</style>
	<g id="Layer_2">
		<g id="Layer_1-2">
			<path id="Layer" class="s0" d="m98.7 30.5h-3.3l-4.7-10.7v10.7h-3.3v-16.3h3.3l4.8 10.7v-10.7h3.3z" />
			<path id="Layer" fill-rule="evenodd" class="s0" d="m100.8 24.1q0-0.4 0.1-0.7q0-0.3 0-0.6q0.1-0.3 0.1-0.6q0.1-0.3 0.2-0.7q0.1-0.2 0.2-0.5q0.1-0.2 0.2-0.4q0.1-0.3 0.3-0.5q0.1-0.2 0.3-0.4q0.1-0.2 0.3-0.3q0.2-0.2 0.4-0.4q0.2-0.1 0.4-0.2q0.2-0.1 0.4-0.2q0.3-0.1 0.5-0.2q0.3-0.1 0.5-0.1q0.3-0.1 0.5-0.1q0.3 0 0.5 0q0.3 0 0.5 0q0.3 0 0.5 0.1q0.3 0 0.5 0.1q0.3 0.1 0.5 0.2q0.2 0.1 0.4 0.2q0.2 0.1 0.4 0.3q0.2 0.1 0.4 0.3q0.2 0.1 0.3 0.3q0.2 0.2 0.4 0.4q0.1 0.3 0.2 0.5q0.1 0.2 0.3 0.5q0.1 0.2 0.1 0.5q0.1 0.3 0.2 0.6q0.1 0.3 0.1 0.6q0 0.3 0.1 0.7q0 0.3 0 0.6v0.8q0 0.3 0 0.6q-0.1 0.3-0.1 0.7q-0.1 0.3-0.1 0.6q-0.1 0.3-0.2 0.6q-0.1 0.3-0.2 0.5q-0.1 0.3-0.2 0.5q-0.1 0.2-0.3 0.4q-0.1 0.2-0.3 0.4q-0.1 0.2-0.3 0.4q-0.2 0.2-0.4 0.3q-0.2 0.1-0.4 0.3q-0.2 0.1-0.4 0.2q-0.5 0.2-1 0.3q-0.5 0.1-1 0q-0.6 0-1.1 0q-0.5-0.1-1-0.3q-0.2-0.1-0.4-0.2q-0.2-0.2-0.4-0.3q-0.2-0.2-0.4-0.3q-0.1-0.2-0.3-0.4q-0.2-0.2-0.3-0.4q-0.2-0.2-0.3-0.4q-0.1-0.3-0.2-0.5q-0.1-0.3-0.2-0.5q-0.1-0.3-0.1-0.6q-0.1-0.3-0.1-0.7q-0.1-0.3-0.1-0.6q0-0.3 0-0.6zm3.1 0.8q0 0.3 0 0.6q0.1 0.3 0.1 0.6q0.1 0.3 0.2 0.6q0.1 0.3 0.2 0.6q0.2 0.4 0.5 0.6q0.4 0.2 0.8 0.2q0.4 0 0.7-0.2q0.4-0.2 0.6-0.6q0.1-0.3 0.2-0.6q0.1-0.3 0.1-0.6q0.1-0.3 0.1-0.6q0-0.3 0-0.6v-0.8q0-0.3 0-0.7q0-0.3-0.1-0.6q0-0.3-0.1-0.6q-0.1-0.3-0.2-0.6q-0.1-0.2-0.3-0.3q-0.1-0.2-0.3-0.3q-0.2-0.1-0.3-0.1q-0.2-0.1-0.4-0.1q-0.2 0-0.4 0.1q-0.2 0-0.4 0.1q-0.1 0.1-0.3 0.3q-0.1 0.1-0.2 0.3q-0.1 0.3-0.2 0.6q-0.1 0.3-0.2 0.6q0 0.3 0 0.6q-0.1 0.3 0 0.7z" />
			<path id="Layer" class="s0" d="m116.3 15.5l-0.1 3h1.7v2.4h-1.7v6q0 0 0 0.1q0 0.1 0 0.2q0 0.1 0 0.1q0.1 0.1 0.1 0.2q0 0 0 0.1q0 0 0 0.1q0.1 0 0.1 0.1q0 0 0 0.1q0.1 0 0.1 0q0 0.1 0.1 0.1q0 0 0 0q0.1 0 0.1 0.1q0.1 0 0.1 0q0.1 0 0.1 0q0.1 0 0.2 0q0 0 0.1 0q0 0 0.1 0q0 0 0.1 0q0 0 0.1 0q0 0 0.1 0q0 0 0.1 0q0 0 0.1 0q0 0 0 0q0.1 0 0.1 0v2.4q-0.1 0.1-0.2 0.1q-0.1 0-0.2 0q-0.1 0.1-0.2 0.1q-0.1 0-0.2 0q-0.1 0.1-0.2 0.1q-0.1 0-0.3 0q-0.1 0-0.2 0q-0.1 0-0.3 0q-0.1 0-0.3 0q-0.2 0-0.3 0q-0.2-0.1-0.3-0.1q-0.2 0-0.3-0.1q-0.2 0-0.3-0.1q-0.1-0.1-0.3-0.1q-0.1-0.1-0.2-0.2q-0.1-0.1-0.2-0.2q-0.1-0.1-0.2-0.3q-0.1-0.1-0.2-0.2q-0.1-0.2-0.1-0.3q-0.1-0.2-0.1-0.3q-0.1-0.2-0.1-0.4q-0.1-0.2-0.1-0.4q0-0.2-0.1-0.5q0-0.2 0-0.4l0.1-6.4h-1.4v-2.4h1.4v-3z" />
			<path id="Layer" fill-rule="evenodd" class="s0" d="m124.4 30.8q-0.3 0-0.5 0q-0.3 0-0.6-0.1q-0.3 0-0.5-0.1q-0.3-0.1-0.6-0.2q-0.2-0.1-0.4-0.2q-0.2-0.1-0.4-0.2q-0.2-0.2-0.4-0.3q-0.2-0.2-0.4-0.4q-0.2-0.2-0.3-0.4q-0.2-0.2-0.3-0.4q-0.1-0.2-0.2-0.5q-0.1-0.2-0.2-0.4q-0.1-0.3-0.1-0.6q-0.1-0.3-0.1-0.6q-0.1-0.3-0.1-0.6q0-0.3 0-0.6v-1q0-0.3 0-0.6q0-0.4 0.1-0.7q0-0.3 0.1-0.6q0-0.4 0.1-0.7q0.1-0.2 0.2-0.5q0.1-0.2 0.2-0.5q0.1-0.2 0.3-0.4q0.1-0.2 0.3-0.5q0.1-0.1 0.3-0.3q0.2-0.2 0.4-0.3q0.2-0.2 0.4-0.3q0.2-0.1 0.4-0.2q0.2-0.1 0.5-0.2q0.2 0 0.5-0.1q0.2 0 0.5 0q0.2-0.1 0.5-0.1q0.5 0 1 0.1q0.4 0.1 0.9 0.3q0.4 0.2 0.8 0.5q0.4 0.3 0.7 0.6q0.3 0.5 0.6 1.1q0.2 0.5 0.4 1.1q0.1 0.5 0.2 1.1q0 0.6 0 1.2v1.4h-6.3q0 0.1 0 0.3q0 0.1 0 0.3q0.1 0.1 0.1 0.3q0 0.1 0.1 0.3q0 0.1 0.1 0.2q0 0.1 0.1 0.2q0 0.1 0.1 0.2q0 0.1 0.1 0.2q0.1 0.1 0.2 0.1q0 0.1 0.1 0.2q0.1 0 0.2 0.1q0.1 0 0.2 0q0.1 0.1 0.2 0.1q0.1 0 0.2 0q0.1 0.1 0.3 0.1q0.1 0 0.2 0q0.2 0 0.4 0q0.2-0.1 0.3-0.1q0.2 0 0.4-0.1q0.2 0 0.4-0.1q0.1-0.1 0.3-0.2q0.1-0.1 0.3-0.2q0.1-0.1 0.3-0.2q0.1-0.1 0.2-0.2l1.3 1.9q-0.1 0.1-0.2 0.2q-0.1 0.1-0.1 0.1q-0.1 0.1-0.2 0.2q-0.1 0.1-0.2 0.1q-0.1 0.1-0.2 0.2q-0.1 0.1-0.2 0.2q-0.1 0-0.2 0.1q-0.1 0.1-0.3 0.1q-0.1 0.1-0.2 0.2q-0.2 0-0.3 0.1q-0.2 0-0.3 0.1q-0.2 0-0.3 0q-0.2 0.1-0.3 0.1q-0.2 0-0.4 0.1q-0.2 0-0.3 0q-0.2 0-0.4 0zm-0.3-9.9q-0.2 0-0.3 0q-0.2 0-0.4 0.1q-0.1 0.1-0.3 0.2q-0.1 0.1-0.2 0.3q-0.1 0.2-0.2 0.4q-0.1 0.2-0.1 0.5q-0.1 0.2-0.1 0.5q-0.1 0.2 0 0.5h3.1v-0.3q0-0.2 0-0.4q0-0.3-0.1-0.5q0-0.2-0.1-0.4q-0.1-0.2-0.1-0.4q-0.1-0.1-0.3-0.2q-0.1-0.1-0.2-0.2q-0.2-0.1-0.4-0.1q-0.1 0-0.3 0z" />
			<path id="Layer" class="s0" d="m97.7 46.1q0 0.5-0.1 1q-0.1 0.6-0.3 1.1q-0.2 0.5-0.5 1q-0.2 0.4-0.6 0.9q-0.6 0.4-1.3 0.8q-0.7 0.3-1.4 0.4q-0.8 0.1-1.5 0q-0.8-0.1-1.5-0.4q-0.2-0.1-0.4-0.3q-0.3-0.1-0.5-0.3q-0.2-0.2-0.3-0.3q-0.2-0.2-0.4-0.4q-0.1-0.3-0.3-0.5q-0.1-0.3-0.3-0.5q-0.1-0.3-0.2-0.6q-0.1-0.3-0.2-0.5q-0.1-0.4-0.1-0.7q-0.1-0.4-0.1-0.7q-0.1-0.4-0.1-0.7q0-0.4 0-0.7v-3.6q0-0.3 0-0.7q0-0.3 0.1-0.6q0-0.4 0.1-0.7q0.1-0.4 0.2-0.7q0-0.3 0.1-0.5q0.1-0.3 0.3-0.6q0.1-0.2 0.2-0.5q0.2-0.2 0.4-0.5q0.1-0.2 0.3-0.3q0.2-0.2 0.4-0.4q0.2-0.2 0.4-0.3q0.3-0.1 0.5-0.3q0.2-0.1 0.5-0.2q0.3 0 0.6-0.1q0.2-0.1 0.5-0.1q0.3 0 0.6 0q0.2 0 0.5 0q0.2 0 0.5 0.1q0.2 0 0.5 0.1q0.2 0 0.5 0.1q0.2 0.1 0.4 0.2q0.2 0.1 0.4 0.2q0.2 0.2 0.3 0.3q0.2 0.2 0.4 0.3q0.1 0.2 0.3 0.4q0.1 0.2 0.2 0.4q0.2 0.2 0.3 0.4q0.1 0.3 0.2 0.5q0.1 0.3 0.1 0.6q0.1 0.3 0.2 0.6q0 0.3 0.1 0.6q0 0.3 0 0.6h-1.3q0-0.3 0-0.5q-0.1-0.2-0.1-0.5q0-0.2-0.1-0.5q-0.1-0.2-0.1-0.4q-0.1-0.2-0.2-0.4q0-0.1-0.1-0.3q-0.1-0.2-0.2-0.3q-0.1-0.2-0.2-0.3q-0.1-0.1-0.3-0.2q-0.1-0.1-0.2-0.2q-0.2-0.1-0.3-0.2q-0.2-0.1-0.3-0.1q-0.2-0.1-0.4-0.1q-0.2-0.1-0.4-0.1q-0.2 0-0.4 0q-0.1-0.1-0.3 0q-0.2-0.1-0.5 0q-0.2 0-0.4 0q-0.2 0.1-0.4 0.1q-0.2 0.1-0.4 0.2q-0.2 0.1-0.4 0.2q-0.1 0.1-0.3 0.3q-0.1 0.1-0.3 0.2q-0.1 0.2-0.2 0.4q-0.2 0.1-0.3 0.3q-0.1 0.2-0.2 0.5q-0.1 0.2-0.1 0.4q-0.1 0.2-0.2 0.4q0 0.3-0.1 0.6q0 0.2-0.1 0.5q0 0.3 0 0.6q0 0.2 0 0.5l-0.1 3.5q0 0.3 0.1 0.6q0 0.3 0 0.6q0 0.3 0.1 0.5q0 0.3 0.1 0.6q0 0.2 0.1 0.5q0.1 0.2 0.2 0.4q0.1 0.2 0.2 0.4q0.1 0.2 0.2 0.4q0.1 0.2 0.2 0.4q0.2 0.1 0.3 0.3q0.2 0.1 0.3 0.2q0.2 0.1 0.4 0.2q0.2 0.2 0.4 0.2q0.2 0.1 0.4 0.2q0.2 0 0.4 0q0.2 0 0.4 0q0.2 0 0.4 0q0.2 0 0.4 0q0.2 0 0.4-0.1q0.2 0 0.4-0.1q0.1 0 0.3-0.1q0.1 0 0.3-0.1q0.1-0.1 0.3-0.2q0.1-0.1 0.2-0.2q0.1-0.2 0.2-0.3q0.1-0.2 0.2-0.3q0.1-0.2 0.2-0.4q0.1-0.1 0.1-0.3q0.1-0.3 0.2-0.5q0-0.3 0.1-0.5q0-0.3 0-0.5q0.1-0.3 0.1-0.5z" />
			<path id="Layer" class="s0" d="m105.3 40.2h-0.3q-0.1 0-0.1 0q-0.1 0-0.1 0q-0.1 0-0.2 0q0 0-0.1 0q-0.1 0-0.2 0q-0.1 0-0.3 0q-0.1 0-0.2 0.1q-0.1 0-0.2 0.1q-0.2 0-0.3 0.1q-0.1 0-0.2 0.1q-0.1 0.1-0.2 0.1q0 0.1-0.1 0.2q-0.1 0.1-0.2 0.2q-0.1 0.1-0.1 0.2q-0.1 0.1-0.2 0.2q-0.1 0.1-0.1 0.2q-0.1 0.2-0.1 0.3q-0.1 0.1-0.1 0.3q0 0.1-0.1 0.2q0 0.2 0 0.3v8.4h-1.3v-12.2h1.2v1.8q0.1-0.2 0.2-0.4q0.1-0.2 0.3-0.4q0.1-0.2 0.3-0.3q0.1-0.2 0.3-0.3q0.2-0.2 0.4-0.3q0.2-0.1 0.4-0.2q0.2 0 0.4-0.1q0.2 0 0.5 0q0 0 0.1 0q0 0 0.1 0q0 0 0.1 0q0 0 0.1 0q0 0 0.1 0q0 0.1 0.1 0.1q0 0 0 0q0.1 0 0.1 0z" />
			<path id="Layer" fill-rule="evenodd" class="s0" d="m111.2 51.4q-0.2 0-0.4 0q-0.3 0-0.5-0.1q-0.2 0-0.5-0.1q-0.2 0-0.4-0.1q-0.2-0.1-0.4-0.2q-0.2-0.1-0.4-0.2q-0.2-0.2-0.3-0.3q-0.2-0.2-0.3-0.3q-0.2-0.2-0.3-0.4q-0.2-0.2-0.3-0.4q-0.1-0.3-0.2-0.5q-0.1-0.2-0.2-0.4q-0.1-0.3-0.1-0.6q-0.1-0.3-0.1-0.7q-0.1-0.3-0.1-0.6q0-0.3 0-0.6v-1.4q0-0.3 0-0.6q0-0.4 0.1-0.7q0-0.3 0.1-0.6q0.1-0.4 0.2-0.7q0-0.2 0.1-0.5q0.1-0.2 0.3-0.4q0.1-0.2 0.2-0.4q0.2-0.3 0.4-0.4q0.1-0.2 0.3-0.4q0.1-0.1 0.3-0.2q0.2-0.2 0.3-0.3q0.2-0.1 0.4-0.1q0.2-0.1 0.4-0.2q0.2 0 0.5-0.1q0.2 0 0.4 0q0.2 0 0.4 0q0.4-0.1 0.8 0q0.5 0.1 0.8 0.3q0.4 0.1 0.8 0.4q0.3 0.2 0.6 0.6q0.3 0.4 0.5 0.9q0.2 0.5 0.3 1q0.1 0.5 0.2 1q0 0.6 0 1.1v1h-7.2v0.7q0 0.2 0 0.5q0 0.2 0 0.5q0.1 0.2 0.1 0.5q0.1 0.2 0.1 0.4q0.1 0.2 0.2 0.4q0 0.2 0.1 0.3q0.1 0.2 0.2 0.4q0.1 0.1 0.2 0.3q0.1 0.1 0.2 0.2q0.2 0.1 0.3 0.2q0.1 0.1 0.3 0.2q0.1 0.1 0.3 0.2q0.2 0 0.3 0.1q0.2 0.1 0.4 0.1q0.1 0 0.3 0q0.2 0 0.4 0q0.2 0.1 0.4 0q0.2 0 0.4 0q0.2-0.1 0.4-0.1q0.2-0.1 0.4-0.2q0.2-0.1 0.4-0.2q0.1-0.1 0.3-0.2q0.1-0.1 0.3-0.3q0.1-0.1 0.3-0.3l0.6 0.9q-0.1 0.1-0.3 0.3q-0.1 0.2-0.3 0.3q-0.2 0.2-0.4 0.3q-0.1 0.1-0.3 0.2q-0.2 0.1-0.3 0.1q-0.1 0.1-0.2 0.1q-0.2 0.1-0.3 0.1q-0.1 0-0.2 0.1q-0.2 0-0.3 0q-0.2 0-0.4 0.1q-0.1 0-0.3 0q-0.1 0-0.3 0zm-0.1-11.4q-0.2 0-0.4 0q-0.1 0-0.3 0q-0.1 0.1-0.3 0.1q-0.1 0-0.3 0.1q-0.1 0-0.2 0.1q-0.2 0.1-0.3 0.2q-0.1 0.1-0.2 0.2q-0.2 0.1-0.3 0.2q-0.1 0.1-0.2 0.3q0 0.1-0.1 0.3q-0.1 0.2-0.2 0.3q0 0.2-0.1 0.4q0 0.2-0.1 0.4q0 0.3-0.1 0.5q0 0.2 0 0.5q-0.1 0.2-0.1 0.4l6 0.1v-0.4q0-0.2 0-0.4q0-0.2-0.1-0.4q0-0.2 0-0.3q-0.1-0.2-0.1-0.4q0-0.2-0.1-0.4q0-0.1-0.1-0.3q-0.1-0.1-0.2-0.2q0-0.2-0.1-0.3q-0.1-0.1-0.2-0.2q-0.1-0.2-0.2-0.2q-0.1-0.1-0.2-0.2q-0.1-0.1-0.3-0.2q-0.1 0-0.3-0.1q-0.1 0-0.3-0.1q-0.2 0-0.3 0q-0.2 0-0.3 0z" />
			<path id="Layer" fill-rule="evenodd" class="s0" d="m124.1 51.2q-0.1-0.1-0.1-0.2q0-0.1 0-0.2q0 0-0.1-0.1q0-0.1 0-0.2c0-0.3 0-0.6-0.1-1q0 0.1-0.1 0.2q0 0.1-0.1 0.2q-0.1 0.1-0.2 0.2q0 0.1-0.1 0.2q-0.1 0.1-0.2 0.1q-0.1 0.1-0.2 0.2q-0.1 0.1-0.2 0.1q-0.1 0.1-0.2 0.2q-0.1 0-0.2 0.1q-0.1 0.1-0.2 0.1q-0.1 0.1-0.2 0.1q-0.2 0-0.3 0.1q-0.1 0-0.3 0.1q-0.1 0-0.2 0q-0.2 0-0.3 0q-0.2 0-0.3 0q-0.2 0-0.3 0q-0.2 0-0.4 0q-0.2 0-0.3-0.1q-0.2 0-0.3-0.1q-0.2 0-0.3-0.1q-0.2-0.1-0.3-0.1q-0.1-0.1-0.2-0.2q-0.1-0.1-0.2-0.2q-0.2-0.1-0.3-0.3q-0.1-0.1-0.1-0.2q-0.1-0.2-0.2-0.3q-0.1-0.1-0.1-0.3q-0.1-0.2-0.1-0.4q-0.1-0.1-0.1-0.3q0-0.2 0-0.4q0-0.2 0-0.4q0-0.2 0-0.4q0-0.2 0-0.4q0.1-0.2 0.1-0.4q0.1-0.1 0.2-0.3q0-0.2 0.1-0.4q0.1-0.2 0.2-0.3q0.1-0.2 0.2-0.3q0.1-0.2 0.3-0.3q0.1-0.1 0.3-0.3q0.2-0.1 0.4-0.2q0.1-0.1 0.3-0.2q0.2 0 0.4-0.1q0.3-0.1 0.5-0.1q0.3-0.1 0.5-0.1q0.3-0.1 0.5-0.1q0.3 0 0.5 0h2v-1.6q0-0.3 0-0.5q0-0.3-0.1-0.5q-0.1-0.3-0.2-0.5q-0.2-0.2-0.3-0.4q-0.2-0.2-0.5-0.3q-0.2-0.1-0.4-0.2q-0.3 0-0.5-0.1q-0.3 0-0.5 0q-0.1 0-0.3 0q-0.1 0-0.2 0.1q-0.2 0-0.3 0q-0.1 0.1-0.3 0.1q-0.1 0-0.2 0.1q-0.1 0.1-0.2 0.1q-0.1 0.1-0.2 0.2q-0.1 0-0.2 0.1q-0.1 0.1-0.2 0.2q0 0.1-0.1 0.2q-0.1 0.1-0.1 0.2q-0.1 0.1-0.1 0.2q-0.1 0.1-0.1 0.2q-0.1 0.1-0.1 0.3q0 0.1 0 0.2q0 0.1 0 0.3h-1.3q0-0.2 0.1-0.4q0-0.2 0-0.3q0-0.2 0.1-0.4q0-0.1 0.1-0.3q0.1-0.1 0.2-0.3q0.1-0.2 0.2-0.3q0.1-0.1 0.2-0.3q0.1-0.1 0.2-0.2q0.1-0.2 0.3-0.3q0.1-0.1 0.3-0.2q0.2-0.1 0.3-0.2q0.2 0 0.4-0.1q0.2-0.1 0.4-0.1q0.2-0.1 0.4-0.1q0.2-0.1 0.4-0.1q0.2 0 0.4 0q0.2 0 0.4 0q0.2 0 0.4 0.1q0.1 0 0.3 0q0.2 0.1 0.4 0.1q0.1 0.1 0.3 0.1q0.2 0.1 0.3 0.2q0.1 0 0.3 0.1q0.1 0.1 0.2 0.2q0.2 0.2 0.3 0.3q0.1 0.1 0.2 0.3q0.1 0.1 0.2 0.3q0.1 0.1 0.1 0.3q0.1 0.2 0.1 0.4q0.1 0.2 0.1 0.4q0.1 0.2 0.1 0.4q0 0.2 0 0.4c0 0.3 0 6.7 0 6.9c0 0.2 0 0.4 0 0.6q0 0.1 0 0.2q0.1 0.1 0.1 0.1q0 0.1 0 0.2q0 0.1 0 0.1q0 0.1 0 0.2q0.1 0 0.1 0.1q0 0 0 0.1q0 0.1 0.1 0.1v0.1zm-3.4-1q0.1 0 0.2 0q0.2 0 0.3 0q0.2 0 0.3-0.1q0.1 0 0.3 0q0.1-0.1 0.2-0.1q0.1-0.1 0.2-0.1q0.1-0.1 0.2-0.2q0.2 0 0.3-0.1q0.1-0.1 0.2-0.1q0-0.1 0.1-0.2q0.1-0.1 0.2-0.2q0.1-0.1 0.2-0.2q0-0.1 0.1-0.1q0.1-0.1 0.1-0.3q0.1-0.1 0.1-0.2q0.1-0.1 0.1-0.2v-2.9h-1.8q-0.4 0-0.7 0q-0.4 0.1-0.7 0.2q-0.3 0-0.6 0.2q-0.4 0.1-0.6 0.3q-0.3 0.2-0.4 0.5q-0.2 0.2-0.3 0.4q-0.1 0.3-0.2 0.6q0 0.3 0 0.5q-0.1 0.5 0 1q0.2 0.4 0.5 0.7q0.3 0.4 0.8 0.5q0.4 0.2 0.9 0.1z" />
			<path id="Layer" class="s0" d="m130.3 36v3.1h2.1v1.1h-2.1v8q0 0.2 0 0.3q0 0.1 0 0.2q0 0.2 0 0.3q0.1 0.1 0.1 0.2q0 0.1 0 0.2q0.1 0.1 0.1 0.2q0 0 0.1 0.1q0 0.1 0.1 0.1q0 0.1 0.1 0.1q0 0.1 0.1 0.1q0 0 0.1 0.1q0 0 0.1 0q0 0 0.1 0.1q0.1 0 0.1 0q0.1 0 0.1 0q0.1 0 0.2 0q0 0 0.1 0q0 0 0.1 0q0.1 0 0.1 0q0.1 0 0.1 0l0.5-0.1v1.2q-0.1 0-0.2 0q0 0-0.1 0q-0.1 0.1-0.1 0.1q-0.1 0-0.2 0q-0.1 0-0.1 0q-0.1 0-0.2 0q-0.1 0-0.2 0q-0.1 0-0.2 0q-0.1 0-0.2 0q-0.1 0-0.2-0.1q-0.1 0-0.2 0q-0.1 0-0.2-0.1q-0.1 0-0.2-0.1q-0.1 0-0.2-0.1q-0.1-0.1-0.2-0.1q-0.1-0.1-0.1-0.2q-0.1-0.1-0.2-0.2q-0.1-0.2-0.1-0.3q-0.1-0.1-0.1-0.2q-0.1-0.2-0.1-0.3q-0.1-0.2-0.1-0.4q0-0.2 0-0.4q-0.1-0.1-0.1-0.3q0-0.2 0-0.4l0.1-8h-1.9v-1.1h1.9v-3.1z" />
			<path id="Layer" class="s0" d="m135 35.6q0 0 0.1-0.1q0-0.1 0-0.2q0-0.1 0.1-0.2q0 0 0.1-0.1q0-0.1 0.1-0.1q0-0.1 0.1-0.1q0.1-0.1 0.2-0.1q0.1 0 0.2 0q0 0 0.1 0q0.1 0.1 0.2 0.1q0.1 0 0.1 0.1q0.1 0 0.2 0.1q0.1 0.1 0.1 0.3q0.1 0.2 0.1 0.3q0 0.2-0.1 0.4q0 0.1-0.1 0.3q-0.1 0-0.2 0.1q0 0-0.1 0.1q-0.1 0-0.2 0q-0.1 0-0.1 0q-0.1 0-0.2 0q-0.1 0-0.2 0q-0.1-0.1-0.1-0.1q-0.1-0.1-0.2-0.1q0-0.1 0-0.2q-0.1 0-0.1-0.1q0-0.1 0-0.2q-0.1-0.1-0.1-0.2zm1.4 15.7l-1.2-0.1v-12.1h1.3z" />
			<path id="Layer" class="s0" d="m143 49.3l3.1-10.2h1.2l-3.8 12.2h-1l-3.7-12.2l1.2 0.1z" />
			<path id="Layer" fill-rule="evenodd" class="s0" d="m153.4 51.5q-0.3 0-0.5 0q-0.2 0-0.5-0.1q-0.2 0-0.4-0.1q-0.3 0-0.5-0.1q-0.2-0.1-0.4-0.2q-0.2-0.1-0.4-0.2q-0.1-0.2-0.3-0.3q-0.2-0.2-0.3-0.3q-0.2-0.2-0.3-0.4q-0.2-0.2-0.3-0.4q-0.1-0.2-0.2-0.5q-0.1-0.2-0.2-0.4q-0.1-0.3-0.1-0.6q-0.1-0.3-0.1-0.6q-0.1-0.3-0.1-0.7q0-0.3 0-0.6v-1.4q0-0.3 0-0.6q0.1-0.4 0.1-0.7q0-0.3 0.1-0.6q0.1-0.3 0.2-0.7q0.1-0.2 0.2-0.4q0.1-0.3 0.2-0.5q0.1-0.2 0.3-0.4q0.1-0.2 0.3-0.4q0.1-0.2 0.3-0.3q0.1-0.2 0.3-0.3q0.2-0.1 0.4-0.2q0.2-0.1 0.4-0.2q0.2-0.1 0.4-0.2q0.2 0 0.4-0.1q0.2 0 0.4 0q0.2 0 0.4 0q0.4-0.1 0.9 0q0.4 0.1 0.8 0.3q0.4 0.1 0.7 0.4q0.3 0.3 0.6 0.6q0.3 0.4 0.5 0.9q0.2 0.5 0.3 1q0.1 0.5 0.2 1q0 0.6 0 1.1v1h-7.2v0.7q0 0.3 0 0.5q0 0.2 0.1 0.5q0 0.2 0 0.5q0.1 0.2 0.2 0.4q0 0.2 0.1 0.4q0 0.2 0.1 0.4q0.1 0.1 0.2 0.3q0.1 0.1 0.2 0.3q0.2 0.1 0.3 0.2q0.1 0.2 0.2 0.3q0.2 0.1 0.3 0.1q0.2 0.1 0.3 0.2q0.2 0.1 0.3 0.1q0.2 0.1 0.4 0.1q0.2 0 0.3 0q0.2 0.1 0.4 0.1q0.2 0 0.4-0.1q0.2 0 0.4 0q0.2 0 0.4-0.1q0.2-0.1 0.4-0.2q0.2 0 0.4-0.2q0.1-0.1 0.3-0.2q0.2-0.1 0.3-0.3q0.2-0.1 0.3-0.3l0.6 0.9q-0.1 0.2-0.3 0.3q-0.1 0.2-0.3 0.3q-0.1 0.2-0.3 0.3q-0.2 0.1-0.4 0.2q-0.1 0.1-0.3 0.1q-0.1 0.1-0.2 0.1q-0.1 0.1-0.3 0.1q-0.1 0.1-0.2 0.1q-0.2 0-0.3 0q-0.2 0.1-0.3 0.1q-0.2 0-0.3 0q-0.2 0-0.3 0zm-0.2-11.4q-0.2 0-0.3 0q-0.2 0-0.3 0.1q-0.2 0-0.3 0q-0.2 0.1-0.3 0.1q-0.2 0.1-0.3 0.2q-0.2 0-0.3 0.1q-0.1 0.1-0.2 0.2q-0.1 0.1-0.2 0.2q-0.1 0.2-0.2 0.3q-0.1 0.2-0.2 0.3q-0.1 0.2-0.2 0.4q0 0.1-0.1 0.3q-0.1 0.2-0.1 0.5q-0.1 0.2-0.1 0.4q0 0.3-0.1 0.5q0 0.2 0 0.5h5.9v-0.3q0-0.2 0-0.4q0-0.2 0-0.4q0-0.2-0.1-0.4q0-0.2-0.1-0.4q0-0.2-0.1-0.3q0-0.2-0.1-0.3q0-0.2-0.1-0.3q-0.1-0.2-0.2-0.3q-0.1-0.1-0.2-0.2q-0.1-0.1-0.2-0.2q-0.1-0.1-0.2-0.2q-0.1-0.1-0.2-0.1q-0.2-0.1-0.3-0.1q-0.2-0.1-0.3-0.1q-0.2-0.1-0.3-0.1q-0.2 0-0.3 0z" />
			<path id="Layer" class="s0" d="m95.5 67.8q0-0.2 0-0.3q0-0.2 0-0.3q0-0.2-0.1-0.3q0-0.2-0.1-0.3q0-0.2-0.1-0.3q0-0.1-0.1-0.3q-0.1-0.1-0.2-0.2q0-0.1-0.1-0.2q-0.2-0.1-0.3-0.3q-0.1-0.1-0.3-0.2q-0.1-0.1-0.3-0.2q-0.1 0-0.3-0.1q-0.2-0.1-0.4-0.2q-0.2-0.1-0.4-0.2q-0.3-0.1-0.5-0.1q-0.2-0.1-0.4-0.2q-0.3 0-0.5-0.1q-0.2-0.1-0.5-0.2q-0.2-0.1-0.4-0.2q-0.3-0.1-0.5-0.2q-0.2-0.1-0.4-0.2q-0.1-0.1-0.3-0.3q-0.2-0.1-0.4-0.2q-0.1-0.1-0.3-0.3q-0.1-0.1-0.2-0.3q-0.2-0.1-0.3-0.3q-0.1-0.1-0.2-0.3q-0.1-0.2-0.2-0.3q-0.1-0.5-0.2-0.9q-0.1-0.4-0.1-0.9q0-0.4 0.1-0.8q0.1-0.4 0.2-0.8q0.1-0.2 0.2-0.4q0.1-0.2 0.3-0.4q0.1-0.1 0.2-0.3q0.1-0.1 0.3-0.3q0.2-0.1 0.3-0.3q0.2-0.1 0.4-0.2q0.2-0.1 0.4-0.2q0.1-0.1 0.3-0.1q0.3-0.1 0.5-0.2q0.2 0 0.5-0.1q0.2 0 0.4 0q0.3-0.1 0.5 0q0.3-0.1 0.5 0q0.3 0 0.5 0q0.3 0.1 0.5 0.2q0.3 0 0.5 0.1q0.2 0.1 0.4 0.2q0.2 0.1 0.4 0.3q0.2 0.1 0.3 0.2q0.2 0.2 0.4 0.3q0.1 0.2 0.3 0.4q0.1 0.2 0.2 0.4q0.1 0.2 0.2 0.4q0.1 0.2 0.2 0.4q0.1 0.2 0.2 0.5q0 0.2 0.1 0.5q0 0.2 0 0.4q0.1 0.3 0.1 0.5h-1.3q0-0.1 0-0.3q-0.1-0.2-0.1-0.4q0-0.2-0.1-0.4q0-0.1-0.1-0.3q0-0.2-0.1-0.3q0-0.2-0.1-0.3q-0.1-0.2-0.2-0.3q-0.1-0.2-0.2-0.3q-0.1-0.1-0.3-0.2q-0.1-0.1-0.2-0.2q-0.1-0.1-0.3-0.2q-0.1-0.1-0.3-0.2q-0.2 0-0.3-0.1q-0.2 0-0.4-0.1q-0.2 0-0.4 0q-0.2 0-0.3 0q-0.2 0-0.4 0q-0.2 0-0.4 0q-0.2 0-0.3 0.1q-0.2 0-0.4 0.1q-0.1 0-0.3 0.1q-0.1 0.1-0.2 0.2q-0.1 0-0.3 0.1q-0.1 0.1-0.2 0.2q-0.1 0.1-0.2 0.3q-0.1 0.1-0.2 0.2q0 0.1-0.1 0.3q-0.1 0.1-0.1 0.2q-0.1 0.2-0.1 0.3q0 0.2-0.1 0.3q0 0.1 0 0.3q0 0.1 0 0.3q0 0.1 0 0.2q0 0.2 0 0.3q0 0.1 0 0.2q0.1 0.2 0.1 0.3q0 0.1 0.1 0.2q0.1 0.2 0.1 0.3q0.1 0.1 0.2 0.2q0.1 0.1 0.2 0.2q0.1 0.1 0.3 0.2q0.1 0.1 0.2 0.2q0.2 0.1 0.3 0.2q0.2 0.1 0.3 0.2q0.2 0.1 0.4 0.2q0.2 0.1 0.4 0.2q0.2 0 0.5 0.1q0.2 0.1 0.4 0.2q0.2 0.1 0.5 0.1q0.2 0.1 0.5 0.2q0.2 0.1 0.4 0.2q0.3 0.1 0.5 0.3q0.2 0.1 0.4 0.2q0.2 0.1 0.4 0.2q0.1 0.1 0.3 0.3q0.2 0.1 0.3 0.3q0.2 0.1 0.3 0.3q0.1 0.1 0.2 0.3q0.1 0.2 0.2 0.3q0.1 0.2 0.2 0.4q0.1 0.2 0.1 0.4q0.1 0.2 0.1 0.5q0.1 0.2 0.1 0.4q0 0.2 0 0.4q0 0.3 0 0.5q0 0.2 0 0.5q-0.1 0.2-0.2 0.4q0 0.2-0.1 0.4q-0.1 0.2-0.2 0.4q-0.1 0.2-0.2 0.4q-0.2 0.1-0.3 0.3q-0.2 0.1-0.3 0.3q-0.2 0.1-0.4 0.2q-0.1 0.2-0.3 0.3q-0.2 0.1-0.4 0.1q-0.2 0.1-0.4 0.2q-0.2 0.1-0.5 0.1q-0.2 0.1-0.4 0.1q-0.3 0.1-0.5 0.1q-0.2 0-0.5 0q-0.2 0-0.4 0q-0.3-0.1-0.5-0.1q-0.2 0-0.5-0.1q-0.2 0-0.4-0.1q-0.2-0.1-0.4-0.2q-0.3 0-0.5-0.2q-0.2-0.1-0.4-0.2q-0.2-0.1-0.3-0.3q-0.2-0.1-0.4-0.3q-0.2-0.2-0.3-0.4q-0.2-0.2-0.3-0.4q-0.1-0.2-0.2-0.4q-0.1-0.2-0.2-0.5q-0.1-0.3-0.2-0.6q0-0.2-0.1-0.5q0-0.3 0-0.6h1.3q0 0.2 0 0.5q0 0.2 0.1 0.4q0 0.2 0.1 0.4q0 0.3 0.1 0.5q0.1 0.1 0.2 0.3q0.1 0.1 0.2 0.3q0.1 0.1 0.2 0.3q0.2 0.1 0.3 0.2q0.1 0.1 0.3 0.2q0.1 0.1 0.3 0.2q0.1 0.1 0.3 0.1q0.2 0.1 0.3 0.1q0.2 0.1 0.4 0.1q0.1 0 0.3 0.1q0.2 0 0.4 0q0.1 0 0.3 0q0.2 0 0.4 0q0.1 0 0.3 0q0.2 0 0.4-0.1q0.1 0 0.3-0.1q0.2 0 0.3-0.1q0.2-0.1 0.3-0.1q0.1-0.1 0.2-0.2q0.2-0.1 0.3-0.2q0.1-0.1 0.2-0.2q0.1-0.1 0.2-0.3q0.1-0.1 0.1-0.2q0.1-0.2 0.2-0.3q0-0.1 0.1-0.3q0-0.1 0.1-0.3q0-0.2 0-0.3q0-0.2 0-0.3z" />
			<path id="Layer" class="s0" d="m101.3 56.6v3.1h2.1v1.1h-2.1v8q0 0.2 0 0.3q0 0.1 0 0.2q0 0.2 0 0.3q0.1 0.1 0.1 0.2q0 0.1 0 0.2q0.1 0.1 0.1 0.1q0 0.1 0.1 0.2q0 0.1 0.1 0.1q0 0.1 0.1 0.1q0 0.1 0 0.1q0.1 0 0.2 0.1q0 0 0.1 0q0 0 0.1 0.1q0.1 0 0.1 0q0.1 0 0.1 0q0.1 0 0.2 0q0 0 0.1 0q0 0 0.1 0q0.1 0 0.1 0q0.1 0 0.1 0l0.4-0.1v1.1q0 0.1-0.1 0.1q0 0-0.1 0q-0.1 0-0.1 0.1q-0.1 0-0.2 0q-0.1 0-0.2 0q0 0-0.1 0q-0.1 0-0.2 0q-0.1 0-0.2 0q-0.1 0-0.2 0q-0.1 0-0.2-0.1q-0.1 0-0.2 0q-0.1 0-0.3-0.1q-0.1 0-0.2-0.1q0 0-0.1-0.1q-0.1-0.1-0.2-0.1q-0.1-0.1-0.2-0.2q0-0.1-0.1-0.2q-0.1-0.2-0.1-0.3q-0.1-0.1-0.1-0.2q-0.1-0.2-0.1-0.3q-0.1-0.2-0.1-0.4q0-0.2-0.1-0.4q0-0.2 0-0.3q0-0.2 0-0.4v-8h-1.8v-1.1h1.9v-3.1z" />
			<path id="Layer" class="s0" d="m112.5 70.4q-0.1 0.2-0.3 0.3q-0.1 0.2-0.3 0.4q-0.1 0.1-0.3 0.3q-0.2 0.1-0.4 0.2q-0.2 0.1-0.4 0.2q-0.3 0.1-0.5 0.1q-0.2 0.1-0.5 0.1q-0.2 0-0.5 0q-0.2 0-0.3 0q-0.2 0-0.4 0q-0.1-0.1-0.3-0.1q-0.2-0.1-0.3-0.1q-0.2-0.1-0.3-0.2q-0.2-0.1-0.3-0.2q-0.1-0.1-0.2-0.2q-0.1-0.1-0.2-0.2q-0.2-0.2-0.3-0.4q-0.1-0.1-0.1-0.3q-0.1-0.2-0.2-0.4q-0.1-0.2-0.1-0.3q-0.1-0.3-0.1-0.6q-0.1-0.2-0.1-0.5q0-0.3 0-0.5q-0.1-0.3 0-0.6v-7.7h1.2v7.8q0 0.2 0 0.4q0 0.2 0 0.4q0 0.2 0.1 0.4q0 0.2 0.1 0.4q0 0.1 0 0.2q0.1 0.2 0.1 0.3q0.1 0.1 0.2 0.2q0.1 0.2 0.1 0.3q0.1 0.1 0.2 0.2q0.1 0 0.2 0.1q0.1 0.1 0.2 0.1q0.1 0.1 0.2 0.1q0.1 0.1 0.2 0.1q0.1 0 0.2 0.1q0.1 0 0.2 0q0.1 0 0.2 0q0.2 0 0.3 0q0.2 0 0.3 0q0.1-0.1 0.3-0.1q0.1 0 0.3-0.1q0.1 0 0.2 0q0.1-0.1 0.2-0.2q0.1 0 0.2-0.1q0.1 0 0.2-0.1q0.1-0.1 0.2-0.2q0.1-0.1 0.2-0.2q0-0.1 0.1-0.2q0.1 0 0.1-0.2q0.1-0.1 0.2-0.2q0-0.1 0.1-0.2q0-0.1 0.1-0.2q0-0.2 0-0.3l0.1-8.8h1.2l-0.1 12.1h-1.2z" />
			<path id="Layer" fill-rule="evenodd" class="s0" d="m116.6 65.2q0-0.3 0-0.7q0-0.3 0-0.6q0.1-0.3 0.1-0.7q0.1-0.3 0.2-0.6q0-0.2 0.1-0.5q0.1-0.2 0.2-0.4q0.1-0.3 0.2-0.5q0.1-0.2 0.3-0.4q0.1-0.1 0.2-0.3q0.2-0.1 0.3-0.3q0.2-0.1 0.3-0.2q0.2-0.1 0.4-0.2q0.2-0.1 0.4-0.1q0.2-0.1 0.4-0.1q0.2-0.1 0.4-0.1q0.2 0 0.4 0q0.3 0 0.5 0q0.3 0 0.5 0.1q0.2 0.1 0.4 0.2q0.3 0.1 0.5 0.2q0.2 0.1 0.3 0.3q0.2 0.1 0.4 0.3q0.1 0.2 0.3 0.4q0.1 0.2 0.2 0.4v-6.8l1.2 0.1v17.2l-1.1-0.1v-1.5q-0.1 0.2-0.3 0.4q-0.1 0.2-0.3 0.3q-0.1 0.2-0.3 0.3q-0.2 0.2-0.4 0.3q-0.2 0.1-0.4 0.2q-0.2 0.1-0.5 0.2q-0.2 0-0.4 0q-0.3 0.1-0.5 0.1q-0.2 0-0.4-0.1q-0.2 0-0.4 0q-0.3-0.1-0.5-0.1q-0.2-0.1-0.3-0.2q-0.2-0.1-0.4-0.2q-0.2-0.1-0.3-0.2q-0.2-0.2-0.3-0.3q-0.1-0.2-0.3-0.3q-0.1-0.2-0.2-0.5q-0.1-0.2-0.2-0.4q-0.1-0.2-0.2-0.4q-0.1-0.3-0.1-0.5q-0.1-0.3-0.2-0.6q0-0.4-0.1-0.7q0-0.3 0-0.6q0-0.3 0-0.7zm1.2 1.2q0 0.4 0 0.9q0.1 0.4 0.1 0.8q0.1 0.5 0.3 0.9q0.1 0.4 0.3 0.8q0.2 0.3 0.4 0.5q0.3 0.2 0.6 0.4q0.2 0.1 0.6 0.2q0.3 0 0.6 0q0.1 0 0.2 0q0.2 0 0.3 0q0.1 0 0.2-0.1q0.2 0 0.3 0q0.1-0.1 0.2-0.1q0.1 0 0.2-0.1q0.1 0 0.2-0.1q0.1-0.1 0.2-0.1q0.1-0.1 0.2-0.1q0-0.1 0.1-0.2q0.1-0.1 0.2-0.1q0-0.1 0.1-0.2q0.1-0.1 0.1-0.2q0.1-0.1 0.1-0.2q0.1-0.1 0.1-0.2q0.1-0.1 0.1-0.2l0.1-6.2q-0.1-0.1-0.1-0.2q-0.1-0.1-0.1-0.2q-0.1-0.1-0.1-0.2q-0.1-0.1-0.2-0.2q-0.1-0.2-0.2-0.4q-0.2-0.1-0.3-0.3q-0.2-0.1-0.4-0.2q-0.2-0.1-0.4-0.2q-0.1 0-0.3-0.1q-0.1 0-0.2 0q-0.1 0-0.3-0.1q-0.1 0-0.2 0q-0.3 0-0.7 0.1q-0.3 0-0.6 0.2q-0.3 0.1-0.5 0.3q-0.3 0.3-0.4 0.5q-0.2 0.4-0.4 0.8q-0.1 0.5-0.2 0.9q-0.1 0.4-0.1 0.9q-0.1 0.4-0.1 0.9z" />
			<path id="Layer" class="s0" d="m128.1 56.2q0-0.1 0-0.1q0.1-0.1 0.1-0.2q0-0.1 0.1-0.2q0-0.1 0.1-0.1q0-0.1 0.1-0.1q0-0.1 0.1-0.1q0.1-0.1 0.2-0.1q0.1 0 0.2 0q0 0 0.1 0q0.1 0 0.2 0.1q0.1 0 0.1 0.1q0.1 0 0.2 0.1q0 0.1 0.1 0.1q0 0.1 0 0.2q0.1 0.1 0.1 0.2q0 0 0 0.1q0 0.1 0 0.2q0 0.1-0.1 0.2q0 0.1 0 0.1q-0.1 0.1-0.1 0.2q-0.1 0-0.2 0.1q0 0-0.1 0.1q-0.1 0-0.2 0q-0.1 0-0.2 0q0 0-0.1 0q-0.1 0-0.2 0q-0.1-0.1-0.1-0.1q-0.1-0.1-0.2-0.1q0-0.1 0-0.2q-0.1 0-0.1-0.1q0-0.1-0.1-0.2q0-0.1 0-0.2zm1.4 15.6h-1.2v-12.1h1.3z" />
			<path id="Layer" fill-rule="evenodd" class="s0" d="m132.5 65.2q0-0.3 0-0.6q0-0.3 0.1-0.6q0-0.3 0.1-0.6q0-0.3 0.1-0.6q0.1-0.2 0.2-0.5q0.1-0.2 0.2-0.4q0.1-0.2 0.2-0.4q0.2-0.3 0.3-0.5q0.2-0.1 0.3-0.3q0.2-0.1 0.4-0.3q0.1-0.1 0.3-0.2q0.2-0.1 0.4-0.2q0.2-0.1 0.4-0.2q0.3-0.1 0.5-0.1q0.2-0.1 0.4-0.1q0.3 0 0.5 0q0.2 0 0.5 0q0.2 0 0.4 0.1q0.3 0 0.5 0.1q0.2 0.1 0.4 0.2q0.2 0.1 0.4 0.2q0.2 0.1 0.4 0.2q0.1 0.2 0.3 0.3q0.2 0.2 0.3 0.4q0.2 0.2 0.3 0.4q0.1 0.2 0.2 0.4q0.1 0.2 0.2 0.5q0.1 0.2 0.2 0.4q0.1 0.3 0.1 0.6q0.1 0.3 0.1 0.6q0.1 0.3 0.1 0.7q0 0.3 0 0.6v1.2q0 0.3 0 0.6q0 0.3-0.1 0.7q0 0.3-0.1 0.6q0 0.3-0.1 0.6q-0.1 0.2-0.2 0.4q-0.1 0.3-0.2 0.5q-0.1 0.2-0.2 0.4q-0.2 0.2-0.3 0.4q-0.2 0.2-0.3 0.3q-0.2 0.2-0.4 0.3q-0.1 0.2-0.3 0.3q-0.2 0.1-0.4 0.2q-0.2 0.1-0.5 0.2q-0.2 0-0.4 0.1q-0.2 0-0.4 0q-0.3 0.1-0.5 0.1q-0.2 0-0.5-0.1q-0.2 0-0.4 0q-0.3-0.1-0.5-0.2q-0.2 0-0.4-0.1q-0.2-0.1-0.4-0.2q-0.2-0.1-0.4-0.3q-0.2-0.1-0.3-0.3q-0.2-0.1-0.3-0.3q-0.2-0.2-0.3-0.4q-0.1-0.2-0.2-0.4q-0.1-0.3-0.2-0.5q-0.1-0.2-0.2-0.5q-0.1-0.3-0.1-0.6q-0.1-0.3-0.1-0.6q-0.1-0.3-0.1-0.6q0-0.3 0-0.6zm1.2 1.3q0 0.2 0 0.4q0.1 0.3 0.1 0.5q0 0.2 0 0.5q0.1 0.2 0.1 0.4q0.1 0.2 0.1 0.4q0.1 0.2 0.2 0.4q0.1 0.1 0.1 0.3q0.1 0.2 0.2 0.3q0.1 0.2 0.3 0.3q0.1 0.1 0.2 0.3q0.1 0.1 0.3 0.2q0.1 0.1 0.2 0.2q0.2 0 0.4 0.1q0.1 0 0.3 0.1q0.2 0 0.3 0q0.2 0.1 0.4 0.1q0.2 0 0.4 0q0.1-0.1 0.3-0.1q0.2 0 0.4-0.1q0.1-0.1 0.3-0.1q0.1-0.1 0.3-0.2q0.1-0.1 0.2-0.2q0.2-0.1 0.3-0.3q0.1-0.1 0.2-0.2q0.1-0.2 0.2-0.4q0.1-0.1 0.1-0.3q0.1-0.2 0.2-0.4q0-0.2 0.1-0.3q0-0.3 0.1-0.5q0-0.2 0-0.5q0.1-0.2 0.1-0.4q0-0.3 0-0.5v-1.3q0-0.2 0-0.4q0-0.3-0.1-0.5q0-0.2 0-0.5q-0.1-0.2-0.1-0.4q-0.1-0.2-0.1-0.4q-0.1-0.2-0.2-0.4q-0.1-0.1-0.1-0.3q-0.1-0.2-0.2-0.3q-0.1-0.2-0.3-0.3q-0.1-0.1-0.2-0.3q-0.1-0.1-0.3-0.2q-0.1-0.1-0.2-0.2q-0.2 0-0.4-0.1q-0.1-0.1-0.3-0.1q-0.2 0-0.3-0.1q-0.2 0-0.4 0q-0.2 0-0.3 0q-0.2 0-0.4 0.1q-0.1 0-0.3 0.1q-0.2 0-0.3 0.1q-0.2 0.1-0.3 0.2q-0.1 0.1-0.3 0.2q-0.1 0.1-0.2 0.3q-0.1 0.1-0.2 0.2q-0.1 0.2-0.2 0.4q-0.1 0.1-0.2 0.3q-0.1 0.2-0.1 0.4q-0.1 0.2-0.1 0.4q-0.1 0.2-0.1 0.4q-0.1 0.2-0.1 0.5q0 0.2 0 0.4q0 0.3 0 0.5z" />
			<path id="Layer" class="s1" d="m69.9 77.3l-45.9 3.9q-1.2 0.3-2.3 0q-1.2-0.2-2.2-1q-0.9-0.7-1.4-1.8q-0.6-1.1-0.6-2.3l0.2-68.7q0-1.2 0.6-2.3q0.5-1.1 1.4-1.8q1-0.8 2.2-1q1.1-0.3 2.3 0l45.8 10.8q0.9 0.2 1.6 0.7q0.8 0.4 1.3 1.1q0.6 0.8 0.9 1.6q0.3 0.8 0.3 1.7l-0.2 53.9q0 0.9-0.3 1.7q-0.2 0.9-0.8 1.6q-0.6 0.7-1.3 1.2q-0.8 0.5-1.6 0.7z" />
			<path id="Layer" class="s2" d="m21.1 2.5l0.3-0.1z" />
			<path id="Layer" class="s3" d="m20.1 3h0.1z" />
			<path id="Layer" class="s4" d="m64.5 77.7h0.6h-0.2z" />
			<path id="Layer" class="s5" d="m24.2 2.3q-0.1-0.1-0.2-0.1q-0.2 0-0.3 0q-0.1 0-0.3 0q-0.1-0.1-0.3-0.1q0.2 0 0.4 0.1q0.2 0 0.4 0q0.2 0 0.4 0.1q0.2 0 0.4 0.1l0.4 0.1z" />
			<path id="Layer" class="s6" d="m22.1 2.2q0.1 0 0.2 0q0 0 0.1 0q0.1 0 0.2 0q0 0 0.1 0q-0.1 0-0.1 0q-0.1 0-0.2 0q-0.1 0-0.1 0q-0.1 0-0.2 0z" />
			<path id="Layer" class="s7" d="m17.5 76.1q0 0.2 0.1 0.5q0 0.3 0.1 0.5q0 0.3 0.1 0.5q0.1 0.3 0.2 0.5q-1.1 0-2.1-0.4q-0.9-0.4-1.7-1.2q-0.7-0.8-1.1-1.8q-0.3-1-0.3-2.1l4.9-63.8z" />
			<path id="Layer" class="s8" d="m20.2 2.9q0.1 0 0.2-0.1q0.2 0 0.3-0.1q0.1-0.1 0.2-0.1q0.1-0.1 0.2-0.1q-0.1 0-0.2 0.1q-0.1 0-0.2 0.1q-0.1 0.1-0.3 0.1q-0.1 0.1-0.2 0.1z" />
			<path id="Layer" class="s9" d="m19.3 3.7q-0.4 0.5-0.7 1q-0.3 0.5-0.5 1q-0.2 0.6-0.2 1.1l-0.2 2v-1.4q0-0.6 0.2-1.3q0.2-0.6 0.5-1.2q0.3-0.6 0.7-1q0.5-0.5 1-0.9q-0.4 0.3-0.8 0.7z" />
			<path id="Layer" class="s10" d="m22.7 2.2q0.1 0 0.1 0q0.1 0 0.1 0q0.1 0 0.1 0q0.1 0 0.1 0z" />
			<path id="Layer" class="s11" d="m21.6 2.4q0.1-0.1 0.2-0.1q0.1 0 0.2 0q0-0.1 0.1-0.1q-0.1 0-0.1 0.1q-0.1 0-0.2 0q-0.1 0-0.2 0.1q-0.1 0-0.2 0q0.1 0 0.2 0z" />
			<path id="Layer" class="s12" d="m55.9 17.2l-11.4-1.1v-16.1l11.4 4.9v12.3z" />
			<path id="Layer" class="s13" d="m20.1 3h0.1q0.1-0.1 0.2-0.2q0.2 0 0.3-0.1q0.1 0 0.2-0.1q0.1 0 0.2-0.1l0.3-0.1q0.1 0 0.2 0q0.1-0.1 0.2-0.1q0.1 0 0.2 0q0-0.1 0.1-0.1q0.1 0 0.2 0q0.1 0 0.1 0q0.1 0 0.2 0q0.1 0 0.1 0q0.1 0 0.1 0q0.1 0 0.2 0q0 0 0.1 0q0 0 0.1 0q0.1 0 0.2 0q0.2 0 0.3 0q0.2 0 0.3 0q0.1 0.1 0.3 0.1l0.8 0.2h0.1h-0.1q-1-0.4-2.1-0.4q-1 0-2 0.4q-1 0.5-1.7 1.2q-0.7 0.8-1.1 1.8q0.1-0.4 0.3-0.7q0.2-0.4 0.5-0.7q0.2-0.3 0.5-0.6q0.3-0.3 0.6-0.5z" />
			<path id="Layer" class="s14" d="m18.1 6.1c-0.1 0.1-0.1 0.3-0.1 0.4v-0.2q0-0.1 0.1-0.2z" />
			<path id="Layer" class="s15" d="m17.7 8.9l-0.2 66l-2.5-0.2c-3.3 0.3-6.2-2.5-5.7-5.6l8.6-62z" />
			<path id="Layer" class="s16" d="m17.9 6.7q0 0 0 0q0-0.1 0.1-0.1q0-0.1 0-0.1l-0.1 0.6v-0.3q0 0 0-0.1z" />
			<path id="Layer" class="s17" d="m18 6.1q0-0.1 0.1-0.1q0-0.1 0-0.2q0-0.1 0-0.2q0.1 0 0.1-0.1q0 0.1-0.1 0.2q0 0 0 0.1q0 0.1 0 0.2q-0.1 0-0.1 0.1z" />
			<path id="Layer" class="s18" d="m71.6 13.8q0.8 0.4 1.3 1.1q0.6 0.8 0.9 1.6q0.3 0.8 0.3 1.7l-0.2 53.9q0 0.9-0.3 1.7q-0.3 0.9-0.8 1.6q-0.6 0.7-1.3 1.2q-0.8 0.5-1.7 0.7l-4.7 0.4h-0.7l-40.4 3.5q-1.2 0.3-2.4 0q-1.2-0.3-2.1-1q-0.9-0.8-1.5-1.8q-0.5-1.1-0.5-2.3l0.2-67.3l0.1-1.7l0.1-0.6c0.1-0.2 0.1-0.3 0.1-0.4q0-0.1 0-0.2q0 0 0-0.1q0.1-0.1 0.1-0.2q0 0 0-0.1q0.2-0.4 0.4-0.7q0.2-0.4 0.4-0.7q0.3-0.3 0.6-0.6q0.3-0.3 0.6-0.5l0.1-0.1q0.1 0 0.2-0.1q0.2 0 0.3-0.1q0.1 0 0.2-0.1q0.1 0 0.2-0.1l0.3-0.1q0.1 0 0.1 0q0.1-0.1 0.2-0.1q0.1 0 0.2 0q0.1-0.1 0.2-0.1q0.1 0 0.2 0q0 0 0.1 0q0.1 0 0.2 0q0 0 0.1 0q0.1-0.1 0.1-0.1q0.1 0 0.1 0q0.1 0 0.1 0q0.1 0.1 0.1 0.1q0.2 0 0.3 0q0.2 0 0.3 0q0.1 0 0.3 0q0.1 0 0.2 0.1l0.9 0.2h0.1l44.8 10.6q0.9 0.2 1.6 0.7z" />
			<path id="Layer" class="s19" d="m71.6 13.8q0.8 0.4 1.3 1.1q0.6 0.8 0.9 1.6q0.3 0.8 0.3 1.7l-0.2 53.9q0 0.9-0.3 1.7q-0.3 0.9-0.8 1.6q-0.6 0.7-1.3 1.2q-0.8 0.5-1.7 0.7l-4.7 0.4h-0.7l-40.4 3.5q-1.2 0.3-2.4 0q-1.2-0.3-2.1-1q-0.9-0.8-1.5-1.8q-0.5-1.1-0.5-2.3l0.2-67.3l0.1-1.7l0.1-0.6c0.1-0.2 0.1-0.3 0.1-0.4q0-0.1 0-0.2q0 0 0-0.1q0.1-0.1 0.1-0.2q0 0 0-0.1q0.2-0.4 0.4-0.7q0.2-0.4 0.4-0.7q0.3-0.3 0.6-0.6q0.3-0.3 0.6-0.5l0.1-0.1q0.1 0 0.2-0.1q0.2 0 0.3-0.1q0.1 0 0.2-0.1q0.1 0 0.2-0.1l0.3-0.1q0.1 0 0.1 0q0.1-0.1 0.2-0.1q0.1 0 0.2 0q0.1-0.1 0.2-0.1q0.1 0 0.2 0q0 0 0.1 0q0.1 0 0.2 0q0 0 0.1 0q0.1-0.1 0.1-0.1q0.1 0 0.1 0q0.1 0 0.1 0q0.1 0.1 0.1 0.1q0.2 0 0.3 0q0.2 0 0.3 0q0.1 0 0.3 0q0.1 0 0.2 0.1l0.9 0.2h0.1l44.8 10.6q0.9 0.2 1.6 0.7z" />
			<path id="Layer" class="s20" d="m48 44.6l-30.3-1.9c-8.2-42.8-8.2-42.8-8.2-42.8l43.6 78.8l0.1-28.7q0-1-0.4-2q-0.4-1-1.1-1.8q-0.7-0.7-1.7-1.1q-1-0.4-2-0.5z" />
		</g>
	</g>
</svg>