<svg xmlns="http://www.w3.org/2000/svg" xmlns:xlink="http://www.w3.org/1999/xlink" viewBox="0 0 168.53 160"><defs><style>.cls-1{fill:url(#linear-gradient);}.cls-2{fill:#fff;}.cls-3,.cls-6{opacity:0.71;}.cls-3{fill:url(#linear-gradient-2);}.cls-4{fill:#2483c5;}.cls-5{fill:url(#linear-gradient-3);}.cls-6{fill:url(#linear-gradient-4);}.cls-7{fill:#f1f1f2;}.cls-8{fill:#223f99;}</style><linearGradient id="linear-gradient" x1="84.27" y1="157.48" x2="84.27" y2="117.82" gradientUnits="userSpaceOnUse"><stop offset="0" stop-color="#223f99"/><stop offset="0.23" stop-color="#2358a9"/><stop offset="0.51" stop-color="#2370b9"/><stop offset="0.78" stop-color="#247ec2"/><stop offset="1" stop-color="#2483c5"/></linearGradient><linearGradient id="linear-gradient-2" x1="59.54" y1="110.98" x2="122.46" y2="3.14" gradientUnits="userSpaceOnUse"><stop offset="0" stop-color="#ffdd15"/><stop offset="0.09" stop-color="#f9db1a" stop-opacity="0.97"/><stop offset="0.22" stop-color="#e9d427" stop-opacity="0.9"/><stop offset="0.37" stop-color="#cfc93c" stop-opacity="0.78"/><stop offset="0.53" stop-color="#aaba5a" stop-opacity="0.61"/><stop offset="0.72" stop-color="#7aa680" stop-opacity="0.39"/><stop offset="0.91" stop-color="#418fad" stop-opacity="0.13"/><stop offset="1" stop-color="#2483c5" stop-opacity="0"/></linearGradient><linearGradient id="linear-gradient-3" x1="82.8" y1="103.18" x2="82.8" y2="11.47" xlink:href="#linear-gradient"/><linearGradient id="linear-gradient-4" x1="75" y1="103.18" x2="75" y2="15.37" gradientUnits="userSpaceOnUse"><stop offset="0" stop-color="#ffdd15"/><stop offset="0.2" stop-color="#ffde1b" stop-opacity="0.97"/><stop offset="0.48" stop-color="#fedf2b" stop-opacity="0.9"/><stop offset="0.81" stop-color="#fce144" stop-opacity="0.79"/><stop offset="1" stop-color="#fbe356" stop-opacity="0.71"/></linearGradient></defs><g id="Layer_2" data-name="Layer 2"><g id="Layer_5" data-name="Layer 5"><path class="cls-1" d="M109.29,157.48h-50l6.52-25.85,3.48-13.81h30l3.49,13.81Z"/><path class="cls-2" d="M160.19,125.41H8.34A8.35,8.35,0,0,1,0,117.07V8.34A8.34,8.34,0,0,1,8.34,0H160.19a8.33,8.33,0,0,1,8.34,8.34V117.07a8.34,8.34,0,0,1-8.34,8.34Z"/><path class="cls-3" d="M0,20.51v89.35c0,8.59,3.73,15.55,8.34,15.55H160.19c4.61,0,8.34-7,8.34-15.55V20.51Z"/><path class="cls-4" d="M168.53,21.25V8.34A8.33,8.33,0,0,0,160.19,0H8.34A8.33,8.33,0,0,0,0,8.34V21.25Z"/><path class="cls-4" d="M0,103.18v13.89a8.34,8.34,0,0,0,8.34,8.34H160.19a8.34,8.34,0,0,0,8.34-8.34V103.18Z"/><path class="cls-5" d="M78.24,14.38,68.13,36.11a10.06,10.06,0,0,0-.94,4.25v62.82H98.41V40.36a10.2,10.2,0,0,0-.93-4.25L87.37,14.38a5,5,0,0,0-9.13,0Z"/><path class="cls-6" d="M67.19,43.25H82.8v59.93H67.19Z"/><path class="cls-7" d="M78.24,14.38,68.13,36.11a10.06,10.06,0,0,0-.94,4.25v6.42a12.82,12.82,0,0,0,6,1.51,12.64,12.64,0,0,0,6.85-2,5.14,5.14,0,0,1,5.49,0,12.78,12.78,0,0,0,12.83.45V40.36a10.2,10.2,0,0,0-.93-4.25L87.37,14.38a5,5,0,0,0-9.13,0Z"/><path class="cls-8" d="M78.24,14.38l-5.53,11.9a15.94,15.94,0,0,0,20.19,0L87.37,14.38a5,5,0,0,0-9.13,0Z"/><path class="cls-8" d="M117.77,155h-67a2.52,2.52,0,1,0,0,5h67a2.52,2.52,0,1,0,0-5Z"/><path class="cls-7" d="M14.28,10.59v.07a2.52,2.52,0,1,0,5,0v-.07a2.52,2.52,0,0,0-5,0Z"/><path class="cls-7" d="M22.81,10.59v.07a2.52,2.52,0,1,0,5,0v-.07a2.52,2.52,0,0,0-5,0Z"/><path class="cls-7" d="M31.34,10.59v.07a2.52,2.52,0,1,0,5,0v-.07a2.52,2.52,0,0,0-5,0Z"/></g></g></svg>