<svg xmlns="http://www.w3.org/2000/svg" xmlns:xlink="http://www.w3.org/1999/xlink" viewBox="0 0 154.37 160"><defs><style>.cls-1{fill:#9fb0fe;}.cls-2{fill:url(#linear-gradient);}.cls-3{fill:url(#linear-gradient-2);}.cls-4{fill:url(#linear-gradient-3);}.cls-5{fill:#ffdd15;opacity:0.71;}.cls-6{fill:#2483c5;}.cls-7{fill:#fff;}.cls-8{fill:#f1f1f2;}.cls-10,.cls-9{fill:#223f99;}.cls-9{opacity:0.5;}</style><linearGradient id="linear-gradient" x1="77.22" y1="160" x2="77.22" y2="7.32" gradientUnits="userSpaceOnUse"><stop offset="0" stop-color="#2483c5"/><stop offset="0.08" stop-color="#2483c5" stop-opacity="0.9"/><stop offset="0.29" stop-color="#2483c5" stop-opacity="0.69"/><stop offset="0.49" stop-color="#2483c5" stop-opacity="0.52"/><stop offset="0.68" stop-color="#2483c5" stop-opacity="0.4"/><stop offset="0.85" stop-color="#2483c5" stop-opacity="0.33"/><stop offset="1" stop-color="#2483c5" stop-opacity="0.3"/></linearGradient><linearGradient id="linear-gradient-2" x1="53.44" y1="231.53" x2="53.44" y2="71.53" gradientTransform="matrix(1, 0, 0, -1, 0, 231.53)" gradientUnits="userSpaceOnUse"><stop offset="0" stop-color="#fff100" stop-opacity="0"/><stop offset="1" stop-color="#fff100" stop-opacity="0.6"/></linearGradient><linearGradient id="linear-gradient-3" x1="11.67" y1="160" x2="11.67" gradientUnits="userSpaceOnUse"><stop offset="0" stop-color="#223f99"/><stop offset="0.23" stop-color="#2358a9"/><stop offset="0.51" stop-color="#2370b9"/><stop offset="0.78" stop-color="#247ec2"/><stop offset="1" stop-color="#2483c5"/></linearGradient></defs><g id="Layer_2" data-name="Layer 2"><g id="Layer_1-2" data-name="Layer 1"><path class="cls-1" d="M106.88,6.41V153.59a6.41,6.41,0,0,1-6.41,6.41H6.41A6.41,6.41,0,0,1,0,153.59V6.41A6.41,6.41,0,0,1,6.41,0h94.06A6.41,6.41,0,0,1,106.88,6.41Z"/><path class="cls-2" d="M154.37,13.44V153.88c0,3.38-4.15,6.12-9.26,6.12H9.33c-5.11,0-9.26-2.74-9.26-6.12V13.44c0-3.38,4.15-6.12,9.26-6.12H145.11C150.22,7.32,154.37,10.06,154.37,13.44Z"/><path class="cls-3" d="M106.88,6.41V153.59a6.41,6.41,0,0,1-6.41,6.41H6.41A6.41,6.41,0,0,1,0,153.59V6.41A6.41,6.41,0,0,1,6.41,0h94.06A6.41,6.41,0,0,1,106.88,6.41Z"/><path class="cls-4" d="M23.34,0H6.41A6.41,6.41,0,0,0,0,6.41V153.59A6.41,6.41,0,0,0,6.41,160H23.34Z"/><path class="cls-5" d="M0,143.45v10.14A6.41,6.41,0,0,0,6.41,160h94.06a6.41,6.41,0,0,0,6.41-6.41V143.45Z"/><path class="cls-6" d="M106.88,20.59V6.41A6.41,6.41,0,0,0,100.47,0H6.41A6.41,6.41,0,0,0,0,6.41V20.59Z"/><path class="cls-7" d="M71,77.72H48.83a2.21,2.21,0,0,0-2.23,1.93A2.14,2.14,0,0,0,48.74,82H71a2.14,2.14,0,1,0,0-4.28Z"/><path class="cls-7" d="M94.25,77.72H80.81a2.14,2.14,0,0,0,0,4.28H94.34a2.13,2.13,0,0,0,2.13-2.35A2.19,2.19,0,0,0,94.25,77.72Z"/><path class="cls-7" d="M64.54,86.69H48.83a2.21,2.21,0,0,0-2.23,1.93A2.14,2.14,0,0,0,48.74,91h15.8a2.14,2.14,0,1,0,0-4.28Z"/><path class="cls-7" d="M81.41,86.69h-7a2.14,2.14,0,0,0,0,4.28h7.12a2.14,2.14,0,0,0,2.13-2.35,2.21,2.21,0,0,0-2.23-1.93Z"/><path class="cls-7" d="M94.25,95.66H68a2.14,2.14,0,0,0,0,4.28H94.34a2.13,2.13,0,0,0,2.13-2.35,2.19,2.19,0,0,0-2.22-1.93Z"/><path class="cls-7" d="M58.13,95.66h-9.3a2.21,2.21,0,0,0-2.23,1.93,2.14,2.14,0,0,0,2.14,2.35h9.39a2.14,2.14,0,0,0,0-4.28Z"/><path class="cls-7" d="M43.15,111.84H36a2.2,2.2,0,0,0-2.22,1.93,2.14,2.14,0,0,0,2.13,2.35h7.25a2.14,2.14,0,0,0,0-4.28Z"/><path class="cls-7" d="M81.41,111.84H53.57a2.14,2.14,0,0,0,0,4.28H81.51a2.14,2.14,0,0,0,2.13-2.35,2.21,2.21,0,0,0-2.23-1.93Z"/><path class="cls-8" d="M15.08,55.92a2.14,2.14,0,0,0-4.28,0V56a2.14,2.14,0,0,0,4.28,0Z"/><path class="cls-8" d="M15.08,75.31a2.14,2.14,0,0,0-4.28,0v.06a2.14,2.14,0,0,0,4.28,0Z"/><path class="cls-8" d="M15.08,94.71a2.14,2.14,0,0,0-4.28,0v.06a2.14,2.14,0,0,0,4.28,0Z"/><path class="cls-8" d="M12.94,112a2.13,2.13,0,0,0-2.14,2.13v.07a2.14,2.14,0,0,0,4.28,0v-.07A2.13,2.13,0,0,0,12.94,112Z"/><path class="cls-7" d="M16.28,8.13a2.14,2.14,0,0,0-2.14,2.14v.06a2.14,2.14,0,0,0,4.28,0v-.06A2.14,2.14,0,0,0,16.28,8.13Z"/><path class="cls-7" d="M24.54,8.13a2.14,2.14,0,0,0-2.14,2.14v.06a2.14,2.14,0,0,0,4.28,0v-.06A2.14,2.14,0,0,0,24.54,8.13Z"/><path class="cls-7" d="M32.8,8.13a2.14,2.14,0,0,0-2.14,2.14v.06a2.14,2.14,0,0,0,4.28,0v-.06A2.13,2.13,0,0,0,32.8,8.13Z"/><path class="cls-9" d="M132.28,73.93H106.92V34.05h25.36a3.5,3.5,0,0,1,3.5,3.51V70.42A3.5,3.5,0,0,1,132.28,73.93Z"/><path class="cls-10" d="M128.87,69.24H78.38a3.51,3.51,0,0,1-3.5-3.51V32.87a3.51,3.51,0,0,1,3.5-3.51h50.49a3.51,3.51,0,0,1,3.5,3.51V65.73A3.5,3.5,0,0,1,128.87,69.24Z"/><path class="cls-7" d="M92.73,57.24a2.35,2.35,0,0,1-1.65-.68L85.48,51a2.34,2.34,0,0,1,0-3.3l5.6-5.6a2.33,2.33,0,0,1,3.3,3.29l-4,4,4,4a2.33,2.33,0,0,1-1.65,4Z"/><path class="cls-7" d="M114.52,41.36a2.32,2.32,0,0,1,1.65.69l5.6,5.6a2.34,2.34,0,0,1,0,3.3l-5.6,5.6a2.33,2.33,0,0,1-3.3-3.29l4-4-4-4a2.34,2.34,0,0,1,1.65-4Z"/><path class="cls-7" d="M100.46,57.24a2.41,2.41,0,0,1-1.15-.3,2.34,2.34,0,0,1-.88-3.18l6.33-11.21a2.33,2.33,0,1,1,4.06,2.29l-6.33,11.21A2.34,2.34,0,0,1,100.46,57.24Z"/></g></g></svg>