<svg xmlns="http://www.w3.org/2000/svg" xmlns:xlink="http://www.w3.org/1999/xlink" viewBox="0 0 191.09 160"><defs><style>.cls-1{fill:url(#linear-gradient);}.cls-2,.cls-3{opacity:0.71;}.cls-2{fill:url(#linear-gradient-2);}.cls-3{fill:url(#linear-gradient-3);}.cls-4{fill:#fff;}.cls-5{fill:#223f99;}.cls-6{fill:#2483c5;}.cls-7{fill:url(#linear-gradient-4);}.cls-8{fill:url(#linear-gradient-5);}.cls-9{fill:#f1f1f2;}</style><linearGradient id="linear-gradient" x1="84.3" y1="157.54" x2="84.3" y2="117.86" gradientUnits="userSpaceOnUse"><stop offset="0" stop-color="#223f99"/><stop offset="0.23" stop-color="#2358a9"/><stop offset="0.51" stop-color="#2370b9"/><stop offset="0.78" stop-color="#247ec2"/><stop offset="1" stop-color="#2483c5"/></linearGradient><linearGradient id="linear-gradient-2" x1="14.58" y1="126.81" x2="138.71" y2="12.72" gradientUnits="userSpaceOnUse"><stop offset="0" stop-color="#ffdd15"/><stop offset="0.09" stop-color="#f9db1a" stop-opacity="0.97"/><stop offset="0.22" stop-color="#e9d427" stop-opacity="0.9"/><stop offset="0.37" stop-color="#cfc93c" stop-opacity="0.78"/><stop offset="0.53" stop-color="#aaba5a" stop-opacity="0.61"/><stop offset="0.72" stop-color="#7aa680" stop-opacity="0.39"/><stop offset="0.91" stop-color="#418fad" stop-opacity="0.13"/><stop offset="1" stop-color="#2483c5" stop-opacity="0"/></linearGradient><linearGradient id="linear-gradient-3" x1="137.12" y1="125.45" x2="137.12" y2="0" xlink:href="#linear-gradient-2"/><linearGradient id="linear-gradient-4" x1="151.92" y1="147.39" x2="151.92" y2="75.88" xlink:href="#linear-gradient"/><linearGradient id="linear-gradient-5" x1="123.39" y1="32.91" x2="190.25" y2="73.89" gradientUnits="userSpaceOnUse"><stop offset="0" stop-color="#fff100"/><stop offset="1" stop-color="#2483c5"/></linearGradient></defs><g id="Layer_2" data-name="Layer 2"><g id="Layer_1-2" data-name="Layer 1"><path class="cls-1" d="M109.33,157.54H59.27l6.52-25.86,3.49-13.82h30l3.48,13.82Z"/><path class="cls-2" d="M160.25,125.45H8.34A8.34,8.34,0,0,1,0,117.11V8.34A8.35,8.35,0,0,1,8.34,0H160.25a8.34,8.34,0,0,1,8.34,8.34V117.11A8.33,8.33,0,0,1,160.25,125.45Z"/><path class="cls-3" d="M160.25,0H105.64V125.45h54.61a8.33,8.33,0,0,0,8.34-8.34V8.34A8.34,8.34,0,0,0,160.25,0Z"/><path class="cls-4" d="M59.2,96.7H44.44a2.53,2.53,0,0,1,0-5H59.2a2.53,2.53,0,1,1,0,5Z"/><path class="cls-4" d="M77.86,96.7H71.67a2.53,2.53,0,1,1,0-5h6.19a2.53,2.53,0,0,1,0,5Z"/><path class="cls-4" d="M77.86,106.7H44.44a2.52,2.52,0,0,1,0-5H77.86a2.52,2.52,0,0,1,0,5Z"/><path class="cls-5" d="M21.63,104.37a2.44,2.44,0,0,1-1.74-.73l-3.44-3.43a2.46,2.46,0,1,1,3.48-3.48l1.7,1.69,6.05-6a2.46,2.46,0,0,1,3.48,3.49l-7.79,7.78A2.44,2.44,0,0,1,21.63,104.37Z"/><path class="cls-6" d="M168.59,21.26V8.34A8.34,8.34,0,0,0,160.25,0H8.34A8.35,8.35,0,0,0,0,8.34V21.26Z"/><path class="cls-6" d="M0,103.21v13.9a8.34,8.34,0,0,0,8.34,8.34H160.25a8.33,8.33,0,0,0,8.34-8.34v-13.9Z"/><path class="cls-4" d="M59.2,38.72H44.44a2.53,2.53,0,0,1,0-5H59.2a2.53,2.53,0,1,1,0,5Z"/><path class="cls-4" d="M77.86,38.72H71.67a2.53,2.53,0,1,1,0-5h6.19a2.53,2.53,0,0,1,0,5Z"/><path class="cls-4" d="M77.86,48.73H44.44a2.53,2.53,0,0,1,0-5H77.86a2.53,2.53,0,0,1,0,5Z"/><path class="cls-5" d="M21.63,46.39a2.47,2.47,0,0,1-1.74-.72l-3.44-3.44a2.46,2.46,0,1,1,3.48-3.48l1.7,1.69,6.05-6a2.46,2.46,0,1,1,3.48,3.48l-7.79,7.79A2.47,2.47,0,0,1,21.63,46.39Z"/><path class="cls-4" d="M59.2,67.71H44.44a2.53,2.53,0,0,1,0-5H59.2a2.53,2.53,0,1,1,0,5Z"/><path class="cls-4" d="M77.86,67.71H71.67a2.53,2.53,0,1,1,0-5h6.19a2.53,2.53,0,0,1,0,5Z"/><path class="cls-4" d="M77.86,77.72H44.44a2.53,2.53,0,0,1,0-5H77.86a2.53,2.53,0,0,1,0,5Z"/><path class="cls-5" d="M21.63,75.38a2.47,2.47,0,0,1-1.74-.72l-3.44-3.44a2.46,2.46,0,1,1,3.48-3.48l1.7,1.69,6.05-6.05a2.46,2.46,0,1,1,3.48,3.49l-7.79,7.79A2.47,2.47,0,0,1,21.63,75.38Z"/><path class="cls-7" d="M170.3,75.88v66.58a4.92,4.92,0,0,1-7.64,4.1l-8-5.31a4.9,4.9,0,0,0-5.44,0l-8,5.31a4.92,4.92,0,0,1-7.64-4.1V75.88Z"/><path class="cls-5" d="M170.3,75.88V92.1a45.5,45.5,0,0,1-36.77,0V75.88Z"/><path class="cls-5" d="M151.92,124.91a2.46,2.46,0,0,0,2.46-2.46V89.38h-4.93v33.07A2.47,2.47,0,0,0,151.92,124.91Z"/><circle class="cls-8" cx="151.89" cy="50.38" r="39.2"/><circle class="cls-4" cx="151.89" cy="50.38" r="28.87"/><path class="cls-5" d="M147.81,60.23h-2.63a5.81,5.81,0,0,1-5.81-5.81v-8.1a5.82,5.82,0,0,1,5.81-5.82h2.63a5.82,5.82,0,0,1,5.81,5.82v8.1A5.81,5.81,0,0,1,147.81,60.23Zm-2.63-14.8a.89.89,0,0,0-.89.89v8.1a.89.89,0,0,0,.89.89h2.63a.89.89,0,0,0,.89-.89v-8.1a.89.89,0,0,0-.89-.89Z"/><path class="cls-5" d="M162,60.23a2.46,2.46,0,0,1-2.46-2.46V45.43h-.22a2.47,2.47,0,0,1,0-4.93H162A2.47,2.47,0,0,1,164.46,43v14.8A2.46,2.46,0,0,1,162,60.23Z"/><path class="cls-9" d="M16.81,13.12a2.46,2.46,0,0,1-2.46-2.46V10.6a2.46,2.46,0,0,1,4.92,0v.06A2.46,2.46,0,0,1,16.81,13.12Z"/><path class="cls-9" d="M25.34,13.12a2.47,2.47,0,0,1-2.47-2.46V10.6a2.47,2.47,0,0,1,4.93,0v.06A2.46,2.46,0,0,1,25.34,13.12Z"/><path class="cls-9" d="M33.87,13.12a2.47,2.47,0,0,1-2.47-2.46V10.6a2.47,2.47,0,0,1,4.93,0v.06A2.46,2.46,0,0,1,33.87,13.12Z"/><path class="cls-5" d="M117.81,155.08h-67a2.46,2.46,0,1,0,0,4.92h67a2.46,2.46,0,1,0,0-4.92Z"/></g></g></svg>